<?xml version="1.0" encoding="utf-8"?>
<!-- Generator: Adobe Illustrator 16.0.0, SVG Export Plug-In . SVG Version: 6.00 Build 0)  -->
<!DOCTYPE svg PUBLIC "-//W3C//DTD SVG 1.1//EN" "http://www.w3.org/Graphics/SVG/1.1/DTD/svg11.dtd">
<svg version="1.1" xmlns="http://www.w3.org/2000/svg" xmlns:xlink="http://www.w3.org/1999/xlink" x="0px" y="0px" width="116px"
	 height="38px" viewBox="0 0 116 38" enable-background="new 0 0 116 38" xml:space="preserve">
<g id="Banner">
</g>
<g id="Capa_1">
	<g>
		<g>
			<path fill="#FFFFFF" d="M15.017,1.836c1.876,8.257,5.739,26.9,7.218,32.494c0.099,0.375,0.354,0.416,0.588,0.416
				c0,0,2.913,0,3.212,0c0.295,0,0.354-0.24,0.311-0.419c-1.053-4.602-5.617-24.265-7.329-31.167
				C18.485,1.029,14.81,0.922,15.017,1.836z"/>
			<path fill="#FFFFFF" d="M16.296,1.308c-0.91,0-1.378,0.133-1.378,0.729c0,8.932-6.304,31.875-10.535,31.875
				c-1.13,0-1.431-0.587-1.431-1.669c0-4.353,6.097-6.978,14.033-10.487c8.75-3.867,18.562-9.33,18.562-11.324
				c0-2.558-1.945-3.302-1.945-3.302c0,1.644-8.746,7.565-17.282,12.186C8.736,23.418,0.962,26.897,0.962,32.512
				c0,2.434,1.359,3.779,3.447,3.779c7.253,0,12.951-23.007,12.951-33.104C17.36,2.562,16.91,1.308,16.296,1.308z"/>
		</g>
		<g>
			<path fill="#FFFFFF" d="M32.161,20.789c0-0.602,0-0.984-0.77-1.223c-0.613-0.193-1.291-0.356-2.324-0.356
				c-0.729,0-0.789,0.772-0.789,1.411c0,2.046,0.44,9.734,0.44,12.891c0,0.271,0.15,0.632,0.442,0.838
				c0.586,0.41,1.389,0.545,2.362,0.545c0.364,0,0.638-0.321,0.638-0.723C32.161,31.371,32.155,21.658,32.161,20.789z"/>
			<path fill="#FFFFFF" d="M35.8,21.833c-0.93,0-3.676,4.844-3.676,7.874l-0.703,0.019c0-4.279,3.188-10.229,4.404-10.229
				L35.8,21.833z"/>
			<path fill="#FFFFFF" d="M36.649,33.674c0.314,0.588,3.642,0.488,3.416-0.226c-0.565-1.827-0.839-7.809-0.839-12.717
				c0-1.015-1.349-1.235-3.401-1.235C35.825,19.496,35.278,31.141,36.649,33.674z"/>
			<path fill="#FFFFFF" d="M43.629,19.111c-2.884,0-4.558,9.881-4.558,13.943l0.828-0.076c0-3.572,2.342-11.778,3.727-11.778
				l-0.008-2.089"/>
			<path fill="#FFFFFF" d="M43.443,27.271c0,6.305,2.105,7.559,4.253,7.559c2.285,0,4.399-2.934,4.399-2.934l-0.513-0.852
				c0,0-1.144,1.668-2.854,1.668c-2.759,0-1.239-10.706-1.239-12.097c0-0.887-0.515-1.505-3.871-1.505
				C43.618,19.111,43.443,25.334,43.443,27.271z"/>
		</g>
		<g>
			<path fill="#FFFFFF" d="M59.837,21.139c0,0-0.578-1.826-2.777-1.826c-4.105,0-6.096,4.128-6.096,8.42
				c0,4.034,1.459,7.164,5.018,7.164c2.84,0,3.719-3.389,3.719-3.389l-0.086-1.652c0,0-0.743,1.947-2.309,1.947
				c-2.149,0-2.61-2.381-2.61-4.471c0-3.297,1.202-6.254,2.911-6.254c1.879,0,2.135,1.459,2.135,1.459L59.837,21.139z"/>
			<path fill="#FFFFFF" d="M60.552,18.975c-0.645-0.041-0.65,0.344-0.789,0.938c-0.186,0.777-0.488,3.22-0.488,6.696
				c0,6.546,1.075,8.306,3.613,8.306c2.031,0,3.381-3.008,3.381-3.008l-0.107-0.986c0,0-1.155,1.934-2.328,1.934
				c-0.936,0-1.156-2.658-1.156-6.279c0-2.341,0.488-5.119,0.562-6.336c0.058-0.875-0.063-0.83-0.497-0.967
				C62.279,19.127,61.215,19.021,60.552,18.975z"/>
		</g>
		<g>
			<path fill="#FFFFFF" d="M92.979,17.723c-0.945,0-1.332,0.54-1.332,1.465c0,1.805,4.095,2.729,6.447,2.729V19.95
				c0,0-3.776,0.097-3.776-0.562C94.318,19.388,94.569,17.723,92.979,17.723z"/>
			<path fill="#FFFFFF" d="M106.896,22.331l-0.999-1.12c0,1.844-2.225,11.323-5.05,11.323c-1.392,0-1.946-2.847-1.946-4.517
				c0-4.077,1.268-5.993,1.268-7.188c0-0.366-0.176-0.879-0.691-0.879c-0.514,0-1.455,0.003-2.042,0.003
				c-0.972,0-2.085,3.987-2.085,8.283c0,3.048,0.887,6.691,4.531,6.691C104.737,34.928,106.896,23.682,106.896,22.331z"/>
		</g>
		<path fill="#FFFFFF" d="M66.557,29.848c-0.575,0-1.598,1.13-1.598,2.202c0,1.128,2.759,2.847,7.354,2.847
			c4.388,0,8.025-3.236,8.025-4.551l-0.352-0.781c0,1.523-3.178,2.342-6.982,2.342C68.759,31.906,67.421,29.848,66.557,29.848z"/>
		<path fill="#FFFFFF" d="M75.14,19.183c0,0-6.102,11.577-7.009,11.577c0,0,1.692,1.207,2.351,1.207
			c0.631,0,5.838-10.439,6.614-12.596c0.056-0.148-0.142-0.377-0.327-0.377C76.378,18.994,75.14,19.183,75.14,19.183z"/>
		<path fill="#FFFFFF" d="M75.894,21.104c0,0-2.759,1.166-5.113,1.166c-2.117,0-3.846-0.191-4.34-0.321
			c-0.23-0.058-0.562-0.308-0.518-0.679c0.092-0.689,0.229-1.075,0.359-1.816c0.045-0.23,0.311-0.561,0.591-0.561
			c0.552,0,2.006,0.297,4.011,0.297c2.809,0,5.885-0.195,5.885-0.195L75.894,21.104z"/>
		<path fill="#FFFFFF" d="M108.01,19.523c0-0.558-0.365-1.434-1.394-1.434c-0.854,0-1.258,0.972-1.258,1.695
			c0,2.818,5.729,6.74,5.729,10.418c0,1.172-0.364,2.876-1.366,2.876c-0.977,0-1.455-1.002-1.455-2.433
			c0-0.297-1.223,0.328-1.589,0.52c-0.281,0.15-0.382,0.58-0.382,0.899c0,1.173,1.455,2.856,3.602,2.856s4.387-2.129,4.387-5.098
			c0-4.871-3.755-6.529-6.443-8.433C107.841,21.392,108.01,20.375,108.01,19.523z"/>
		<path fill="#FFFFFF" d="M89.026,22.042c0,2.493-2.165,4.641-4.605,4.641c-1.917,0-2.852-1.056-2.852-1.056l-0.006-0.906
			c0,0,0.889,0.653,2.891,0.653c1.527,0,2.43-1.708,2.43-2.702c0-1.189-0.603-1.811-1.436-1.811c-2.098,0-3.111,3.111-3.111,6.139
			c0,3.602,1.104,5.264,3.025,5.264c5.76,0,7.576-12.404,7.576-12.404l1.089,0.051c0,2.08-2.501,15.02-9.183,15.02
			c-3.406,0-6.15-2.98-6.15-7.766c0-5.436,2.869-8.467,6.525-8.467C87.376,18.697,89.026,20.258,89.026,22.042z"/>
	</g>
</g>
<g id="notes">
</g>
<g id="Grid" display="none">
</g>
</svg>
