<?xml version="1.0" standalone="no"?>
<!DOCTYPE svg PUBLIC "-//W3C//DTD SVG 1.1//EN" "http://www.w3.org/Graphics/SVG/1.1/DTD/svg11.dtd">
<svg width="100%" height="100%" viewBox="0 0 7500 3500" version="1.1" xmlns="http://www.w3.org/2000/svg" xmlns:xlink="http://www.w3.org/1999/xlink" xml:space="preserve" style="fill-rule:evenodd;clip-rule:evenodd;stroke-linejoin:round;stroke-miterlimit:1.41421;">
    <g transform="matrix(1,-3.85014e-32,-4.55017e-32,1,1995.57,253.307)">
        <g id="EXP360 logo full">
            <g id="color blue type">
                <g transform="matrix(1.05869,-2.35075e-16,2.91089e-16,1.31095,-2289.5,-664.659)">
                    <g transform="matrix(1.00621,0,0,0.812591,261.416,461.214)">
                        <path d="M566.469,2752.38L566.469,2498.07L514.438,2498.07L514.438,2461L660.125,2461L660.125,2498.07L608.094,2498.07L608.094,2752.38L566.469,2752.38Z" style="fill:rgb(35,31,32);fill-rule:nonzero;"/>
                    </g>
                    <g transform="matrix(1.00621,0,0,0.812591,261.416,461.214)">
                        <path d="M732.39,2752.38L732.39,2461L774.015,2461L774.015,2585.88L846.859,2585.88L846.859,2461L888.484,2461L888.484,2752.38L846.859,2752.38L846.859,2617.09L774.015,2617.09L774.015,2752.38L732.39,2752.38Z" style="fill:rgb(35,31,32);fill-rule:nonzero;"/>
                    </g>
                    <g transform="matrix(1.00621,0,0,0.812591,261.416,461.214)">
                        <path d="M981.724,2752.38L981.724,2461L1096.19,2461L1096.19,2492.22L1023.35,2492.22L1023.35,2585.88L1075.38,2585.88L1075.38,2617.09L1023.35,2617.09L1023.35,2721.16L1096.19,2721.16L1096.19,2752.38L981.724,2752.38Z" style="fill:rgb(35,31,32);fill-rule:nonzero;"/>
                    </g>
                    <g transform="matrix(1.00621,0,0,0.812591,129.109,461.214)">
                        <rect x="1557.49" y="2461" width="41.625" height="291.375" style="fill:rgb(35,31,32);fill-rule:nonzero;"/>
                    </g>
                    <g transform="matrix(1.00621,0,0,0.812591,129.109,461.214)">
                        <path d="M1695.29,2752.38L1695.29,2461L1752.85,2461L1794.14,2684.08L1835.44,2461L1893,2461L1893,2752.38L1851.38,2752.38L1851.38,2522.46L1809.75,2752.38L1778.54,2752.38L1736.91,2522.46L1736.91,2752.38L1695.29,2752.38Z" style="fill:rgb(35,31,32);fill-rule:nonzero;"/>
                    </g>
                    <g transform="matrix(1.00621,0,0,0.812591,129.109,461.214)">
                        <path d="M1986.24,2752.38L1986.24,2461L2043.8,2461L2085.1,2684.08L2126.4,2461L2183.96,2461L2183.96,2752.38L2142.34,2752.38L2142.34,2522.46L2100.71,2752.38L2069.49,2752.38L2027.87,2522.46L2027.87,2752.38L1986.24,2752.38Z" style="fill:rgb(35,31,32);fill-rule:nonzero;"/>
                    </g>
                    <g transform="matrix(1.00621,0,0,0.812591,129.109,461.214)">
                        <path d="M2277.2,2752.38L2277.2,2461L2391.67,2461L2391.67,2492.22L2318.83,2492.22L2318.83,2585.88L2370.86,2585.88L2370.86,2617.09L2318.83,2617.09L2318.83,2721.16L2391.67,2721.16L2391.67,2752.38L2277.2,2752.38Z" style="fill:rgb(35,31,32);fill-rule:nonzero;"/>
                    </g>
                    <g transform="matrix(1.00621,0,0,0.812591,129.109,461.214)">
                        <path d="M2510.44,2585.88L2520.85,2585.88C2538.19,2585.88 2551.2,2582.22 2559.87,2574.9C2568.54,2567.58 2572.88,2555.63 2572.88,2539.05C2572.88,2522.46 2568.54,2510.51 2559.87,2503.19C2551.2,2495.88 2538.19,2492.22 2520.85,2492.22L2510.44,2492.22L2510.44,2585.88ZM2468.81,2752.38L2468.81,2461L2520.85,2461C2551.85,2461 2575.21,2467.02 2590.93,2479.05C2606.64,2491.08 2614.5,2511.08 2614.5,2539.05C2614.5,2556.39 2611.41,2570.92 2605.23,2582.62C2599.05,2594.33 2590,2602.35 2578.08,2606.69L2624.91,2752.38L2583.61,2752.38L2541.66,2617.09L2510.44,2617.09L2510.44,2752.38L2468.81,2752.38Z" style="fill:rgb(35,31,32);fill-rule:nonzero;"/>
                    </g>
                    <g transform="matrix(1.00621,0,0,0.812591,129.109,461.214)">
                        <path d="M2776.52,2755.3C2750.29,2755.3 2730.26,2747.61 2716.44,2732.21C2702.62,2716.82 2694.9,2695.79 2693.27,2669.12L2734.9,2658.72C2736.95,2700.34 2750.83,2721.16 2776.52,2721.16C2797.33,2721.16 2807.74,2710.75 2807.74,2689.94C2807.74,2683.76 2806.9,2678.04 2805.22,2672.78C2803.54,2667.53 2800.97,2662.7 2797.5,2658.31C2794.03,2653.92 2790.88,2650.4 2788.07,2647.74C2785.25,2645.09 2781.4,2641.81 2776.52,2637.91L2724.49,2596.28C2714.95,2588.8 2707.34,2579.29 2701.64,2567.74C2695.95,2556.2 2693.11,2543.06 2693.11,2528.32C2693.11,2506.85 2699.78,2489.78 2713.11,2477.1C2726.44,2464.41 2744.11,2458.07 2766.12,2458.07C2789.74,2458.07 2808.53,2463.85 2822.45,2475.39C2836.38,2486.93 2844.97,2503.28 2848.23,2524.41C2848.55,2526.69 2848.93,2529.83 2849.37,2533.84L2807.74,2544.25C2807.63,2542.41 2807.36,2539.64 2806.93,2535.96C2805.08,2522.73 2800.94,2512.14 2794.49,2504.17C2788.04,2496.2 2778.58,2492.22 2766.12,2492.22C2756.14,2492.22 2748.45,2495.01 2743.03,2500.59C2737.61,2506.18 2734.9,2513.95 2734.9,2523.93C2734.9,2540.29 2741.83,2554.01 2755.71,2565.06L2807.74,2606.69C2835.49,2629.13 2849.37,2655.95 2849.37,2687.17C2849.37,2708.53 2842.78,2725.22 2829.61,2737.25C2816.44,2749.29 2798.74,2755.3 2776.52,2755.3Z" style="fill:rgb(35,31,32);fill-rule:nonzero;"/>
                    </g>
                    <g transform="matrix(1.00621,0,0,0.812591,129.109,461.214)">
                        <rect x="2933.34" y="2461" width="41.625" height="291.375" style="fill:rgb(35,31,32);fill-rule:nonzero;"/>
                    </g>
                    <g transform="matrix(1.00621,0,0,0.812591,129.109,461.214)">
                        <path d="M3114.7,2752.38L3052.27,2461L3093.89,2461L3124.62,2617.09L3135.35,2689.94L3146.41,2617.09L3177.14,2461L3218.77,2461L3156.33,2752.38L3114.7,2752.38Z" style="fill:rgb(35,31,32);fill-rule:nonzero;"/>
                    </g>
                    <g transform="matrix(1.00621,0,0,0.812591,129.109,461.214)">
                        <path d="M3293.15,2752.38L3293.15,2461L3407.61,2461L3407.61,2492.22L3334.77,2492.22L3334.77,2585.88L3386.8,2585.88L3386.8,2617.09L3334.77,2617.09L3334.77,2721.16L3407.61,2721.16L3407.61,2752.38L3293.15,2752.38Z" style="fill:rgb(35,31,32);fill-rule:nonzero;"/>
                    </g>
                    <g transform="matrix(1.00621,0,0,0.812591,-3.19757,461.214)">
                        <path d="M3942.9,2755.3C3916.66,2755.3 3896.64,2747.61 3882.82,2732.21C3869,2716.82 3861.27,2695.79 3859.65,2669.12L3901.27,2658.72C3903.33,2700.34 3917.21,2721.16 3942.9,2721.16C3963.71,2721.16 3974.12,2710.75 3974.12,2689.94C3974.12,2683.76 3973.28,2678.04 3971.6,2672.78C3969.91,2667.53 3967.34,2662.7 3963.87,2658.31C3960.4,2653.92 3957.26,2650.4 3954.44,2647.74C3951.62,2645.09 3947.78,2641.81 3942.9,2637.91L3890.87,2596.28C3881.33,2588.8 3873.71,2579.29 3868.02,2567.74C3862.33,2556.2 3859.48,2543.06 3859.48,2528.32C3859.48,2506.85 3866.15,2489.78 3879.48,2477.1C3892.82,2464.41 3910.49,2458.07 3932.49,2458.07C3956.12,2458.07 3974.9,2463.85 3988.83,2475.39C4002.76,2486.93 4011.35,2503.28 4014.6,2524.41C4014.93,2526.69 4015.31,2529.83 4015.74,2533.84L3974.12,2544.25C3974.01,2542.41 3973.74,2539.64 3973.3,2535.96C3971.46,2522.73 3967.31,2512.14 3960.86,2504.17C3954.41,2496.2 3944.96,2492.22 3932.49,2492.22C3922.52,2492.22 3914.82,2495.01 3909.4,2500.59C3903.98,2506.18 3901.27,2513.95 3901.27,2523.93C3901.27,2540.29 3908.21,2554.01 3922.09,2565.06L3974.12,2606.69C4001.87,2629.13 4015.74,2655.95 4015.74,2687.17C4015.74,2708.53 4009.16,2725.22 3995.99,2737.25C3982.82,2749.29 3965.12,2755.3 3942.9,2755.3Z" style="fill:rgb(35,31,32);fill-rule:nonzero;"/>
                    </g>
                    <g transform="matrix(1.00621,0,0,0.812591,-3.19757,461.214)">
                        <path d="M4141.99,2648.31L4183.61,2648.31L4162.8,2523.44L4141.99,2648.31ZM4079.55,2752.38L4141.99,2461L4183.61,2461L4246.05,2752.38L4204.43,2752.38L4188.82,2679.53L4136.78,2679.53L4121.18,2752.38L4079.55,2752.38Z" style="fill:rgb(35,31,32);fill-rule:nonzero;"/>
                    </g>
                    <g transform="matrix(1.00621,0,0,0.812591,-3.19757,461.214)">
                        <path d="M4321.08,2752.38L4321.08,2461L4362.7,2461L4362.7,2721.16L4435.55,2721.16L4435.55,2752.38L4321.08,2752.38Z" style="fill:rgb(35,31,32);fill-rule:nonzero;"/>
                    </g>
                    <g transform="matrix(1.00621,0,0,0.812591,-3.19757,461.214)">
                        <path d="M4506.51,2752.38L4506.51,2461L4620.98,2461L4620.98,2492.22L4548.14,2492.22L4548.14,2585.88L4600.17,2585.88L4600.17,2617.09L4548.14,2617.09L4548.14,2721.16L4620.98,2721.16L4620.98,2752.38L4506.51,2752.38Z" style="fill:rgb(35,31,32);fill-rule:nonzero;"/>
                    </g>
                    <g transform="matrix(1.00621,0,0,0.812591,-3.19757,461.214)">
                        <path d="M4774.06,2755.3C4747.82,2755.3 4727.8,2747.61 4713.98,2732.21C4700.16,2716.82 4692.43,2695.79 4690.81,2669.12L4732.43,2658.72C4734.49,2700.34 4748.37,2721.16 4774.06,2721.16C4794.87,2721.16 4805.28,2710.75 4805.28,2689.94C4805.28,2683.76 4804.44,2678.04 4802.76,2672.78C4801.08,2667.53 4798.5,2662.7 4795.03,2658.31C4791.56,2653.92 4788.42,2650.4 4785.6,2647.74C4782.78,2645.09 4778.94,2641.81 4774.06,2637.91L4722.03,2596.28C4712.49,2588.8 4704.87,2579.29 4699.18,2567.74C4693.49,2556.2 4690.65,2543.06 4690.65,2528.32C4690.65,2506.85 4697.31,2489.78 4710.64,2477.1C4723.98,2464.41 4741.65,2458.07 4763.65,2458.07C4787.28,2458.07 4806.06,2463.85 4819.99,2475.39C4833.92,2486.93 4842.51,2503.28 4845.76,2524.41C4846.09,2526.69 4846.47,2529.83 4846.9,2533.84L4805.28,2544.25C4805.17,2542.41 4804.9,2539.64 4804.46,2535.96C4802.62,2522.73 4798.47,2512.14 4792.02,2504.17C4785.57,2496.2 4776.12,2492.22 4763.65,2492.22C4753.68,2492.22 4745.98,2495.01 4740.56,2500.59C4735.14,2506.18 4732.43,2513.95 4732.43,2523.93C4732.43,2540.29 4739.37,2554.01 4753.24,2565.06L4805.28,2606.69C4833.03,2629.13 4846.9,2655.95 4846.9,2687.17C4846.9,2708.53 4840.32,2725.22 4827.15,2737.25C4813.98,2749.29 4796.28,2755.3 4774.06,2755.3Z" style="fill:rgb(35,31,32);fill-rule:nonzero;"/>
                    </g>
                    <g transform="matrix(1.00621,0,0,0.812591,-135.504,461.214)">
                        <path d="M5387.06,2755.3C5360.83,2755.3 5340.8,2747.61 5326.98,2732.21C5313.16,2716.82 5305.44,2695.79 5303.81,2669.12L5345.44,2658.72C5347.5,2700.34 5361.37,2721.16 5387.06,2721.16C5407.87,2721.16 5418.28,2710.75 5418.28,2689.94C5418.28,2683.76 5417.44,2678.04 5415.76,2672.78C5414.08,2667.53 5411.51,2662.7 5408.04,2658.31C5404.57,2653.92 5401.42,2650.4 5398.61,2647.74C5395.79,2645.09 5391.94,2641.81 5387.06,2637.91L5335.03,2596.28C5325.49,2588.8 5317.88,2579.29 5312.19,2567.74C5306.49,2556.2 5303.65,2543.06 5303.65,2528.32C5303.65,2506.85 5310.32,2489.78 5323.65,2477.1C5336.98,2464.41 5354.65,2458.07 5376.65,2458.07C5400.29,2458.07 5419.07,2463.85 5432.99,2475.39C5446.93,2486.93 5455.52,2503.28 5458.77,2524.41C5459.09,2526.69 5459.47,2529.83 5459.9,2533.84L5418.28,2544.25C5418.17,2542.41 5417.9,2539.64 5417.47,2535.96C5415.62,2522.73 5411.48,2512.14 5405.03,2504.17C5398.58,2496.2 5389.12,2492.22 5376.65,2492.22C5366.68,2492.22 5358.99,2495.01 5353.57,2500.59C5348.15,2506.18 5345.44,2513.95 5345.44,2523.93C5345.44,2540.29 5352.37,2554.01 5366.25,2565.06L5418.28,2606.69C5446.03,2629.13 5459.9,2655.95 5459.9,2687.17C5459.9,2708.53 5453.32,2725.22 5440.15,2737.25C5426.98,2749.29 5409.28,2755.3 5387.06,2755.3Z" style="fill:rgb(35,31,32);fill-rule:nonzero;"/>
                    </g>
                    <g transform="matrix(1.00621,0,0,0.812591,-135.504,461.214)">
                        <path d="M5617.05,2755.3C5602.41,2755.3 5589.86,2753.08 5579.4,2748.64C5568.94,2744.19 5560.62,2737.69 5554.45,2729.12C5548.27,2720.56 5543.77,2710.51 5540.95,2698.96C5538.13,2687.42 5536.72,2674 5536.72,2658.72L5536.72,2553.03C5536.72,2537.75 5538.13,2524.41 5540.95,2513.03C5543.77,2501.65 5548.27,2491.76 5554.45,2483.36C5560.62,2474.96 5568.94,2468.64 5579.4,2464.41C5589.86,2460.19 5602.41,2458.07 5617.05,2458.07C5645.45,2458.07 5665.93,2466.2 5678.51,2482.46C5691.08,2498.72 5697.37,2522.24 5697.37,2553.03L5697.37,2658.72C5697.37,2673.79 5695.93,2687.09 5693.06,2698.64C5690.19,2710.18 5685.66,2720.26 5679.48,2728.88C5673.31,2737.5 5664.98,2744.05 5654.53,2748.55C5644.07,2753.05 5631.57,2755.3 5617.05,2755.3ZM5617.05,2721.16C5631.68,2721.16 5641.79,2716.77 5647.37,2707.99C5652.95,2699.21 5655.74,2686.25 5655.74,2669.12L5655.74,2542.62C5655.74,2525.71 5652.98,2513.09 5647.45,2504.74C5641.92,2496.39 5631.79,2492.22 5617.05,2492.22C5602.3,2492.22 5592.17,2496.39 5586.64,2504.74C5581.11,2513.09 5578.35,2525.71 5578.35,2542.62L5578.35,2669.12C5578.35,2686.25 5581.14,2699.21 5586.72,2707.99C5592.3,2716.77 5602.41,2721.16 5617.05,2721.16Z" style="fill:rgb(35,31,32);fill-rule:nonzero;"/>
                    </g>
                    <g transform="matrix(1.00621,0,0,0.812591,-135.504,461.214)">
                        <path d="M5785.41,2752.38L5785.41,2461L5827.03,2461L5827.03,2721.16L5899.88,2721.16L5899.88,2752.38L5785.41,2752.38Z" style="fill:rgb(35,31,32);fill-rule:nonzero;"/>
                    </g>
                    <g transform="matrix(1.00621,0,0,0.812591,-135.504,461.214)">
                        <path d="M6051.81,2755.46C6039.13,2755.46 6027.97,2753.78 6018.32,2750.42C6008.67,2747.06 6000.73,2742.38 5994.5,2736.36C5988.26,2730.34 5983.2,2722.78 5979.29,2713.68C5975.39,2704.57 5972.63,2694.73 5971,2684.16C5969.38,2673.6 5968.56,2661.65 5968.56,2648.31L5968.56,2461L6010.19,2461L6010.19,2648.31C6010.19,2657.31 6010.38,2664.84 6010.76,2670.91C6011.14,2676.98 6012.14,2683.46 6013.77,2690.34C6015.39,2697.23 6017.64,2702.73 6020.51,2706.85C6023.39,2710.97 6027.45,2714.38 6032.71,2717.09C6037.97,2719.8 6044.33,2721.16 6051.81,2721.16C6059.29,2721.16 6065.66,2719.8 6070.92,2717.09C6076.18,2714.38 6080.24,2710.97 6083.11,2706.85C6085.99,2702.73 6088.23,2697.23 6089.86,2690.34C6091.49,2683.46 6092.49,2676.98 6092.87,2670.91C6093.25,2664.84 6093.44,2657.31 6093.44,2648.31L6093.44,2461L6135.06,2461L6135.06,2648.31C6135.06,2661.65 6134.25,2673.6 6132.62,2684.16C6131,2694.73 6128.23,2704.57 6124.33,2713.68C6120.43,2722.78 6115.36,2730.34 6109.13,2736.36C6102.9,2742.38 6094.95,2747.06 6085.31,2750.42C6075.66,2753.78 6064.5,2755.46 6051.81,2755.46Z" style="fill:rgb(35,31,32);fill-rule:nonzero;"/>
                    </g>
                    <g transform="matrix(1.00621,0,0,0.812591,-135.504,461.214)">
                        <path d="M6257.08,2752.38L6257.08,2498.07L6205.05,2498.07L6205.05,2461L6350.74,2461L6350.74,2498.07L6298.71,2498.07L6298.71,2752.38L6257.08,2752.38Z" style="fill:rgb(35,31,32);fill-rule:nonzero;"/>
                    </g>
                    <g transform="matrix(1.00621,0,0,0.812591,-135.504,461.214)">
                        <rect x="6424.95" y="2461" width="41.625" height="291.375" style="fill:rgb(35,31,32);fill-rule:nonzero;"/>
                    </g>
                    <g transform="matrix(1.00621,0,0,0.812591,-135.504,461.214)">
                        <path d="M6637.87,2755.3C6623.23,2755.3 6610.69,2753.08 6600.23,2748.64C6589.77,2744.19 6581.45,2737.69 6575.27,2729.12C6569.09,2720.56 6564.59,2710.51 6561.77,2698.96C6558.95,2687.42 6557.54,2674 6557.54,2658.72L6557.54,2553.03C6557.54,2537.75 6558.95,2524.41 6561.77,2513.03C6564.59,2501.65 6569.09,2491.76 6575.27,2483.36C6581.45,2474.96 6589.77,2468.64 6600.23,2464.41C6610.69,2460.19 6623.23,2458.07 6637.87,2458.07C6666.27,2458.07 6686.76,2466.2 6699.33,2482.46C6711.9,2498.72 6718.19,2522.24 6718.19,2553.03L6718.19,2658.72C6718.19,2673.79 6716.75,2687.09 6713.88,2698.64C6711.01,2710.18 6706.48,2720.26 6700.3,2728.88C6694.13,2737.5 6685.81,2744.05 6675.35,2748.55C6664.89,2753.05 6652.39,2755.3 6637.87,2755.3ZM6637.87,2721.16C6652.5,2721.16 6662.61,2716.77 6668.19,2707.99C6673.77,2699.21 6676.57,2686.25 6676.57,2669.12L6676.57,2542.62C6676.57,2525.71 6673.8,2513.09 6668.27,2504.74C6662.74,2496.39 6652.61,2492.22 6637.87,2492.22C6623.12,2492.22 6612.99,2496.39 6607.46,2504.74C6601.93,2513.09 6599.17,2525.71 6599.17,2542.62L6599.17,2669.12C6599.17,2686.25 6601.96,2699.21 6607.54,2707.99C6613.12,2716.77 6623.23,2721.16 6637.87,2721.16Z" style="fill:rgb(35,31,32);fill-rule:nonzero;"/>
                    </g>
                    <g transform="matrix(1.00621,0,0,0.812591,-135.504,461.214)">
                        <path d="M6806.23,2752.38L6806.23,2461L6837.45,2461L6910.29,2641.16L6910.29,2461L6951.91,2461L6951.91,2752.38L6922.32,2752.38L6847.85,2558.56L6847.85,2752.38L6806.23,2752.38Z" style="fill:rgb(35,31,32);fill-rule:nonzero;"/>
                    </g>
                </g>
                <g transform="matrix(1,0,0,1,46.6878,0)">
                    <g transform="matrix(1.99992,7.18167e-17,7.18167e-17,1.7067,339.947,81.0785)">
                        <circle cx="682.024" cy="679.134" r="561.024" style="fill:white;"/>
                    </g>
                    <g transform="matrix(1,0,0,1,28,-96)">
                        <path d="M2797.98,1336.16C2797.98,1955.43 2295.21,2458.2 1675.94,2458.2C1182.78,2458.2 763.505,2139.36 613.185,1696.75L531.624,1732.22L553.89,1336.16L553.89,1336.16C553.89,1336.16 858.733,1589.99 858.733,1589.99L768.188,1629.36C892.001,2012.47 1251.83,2289.9 1675.94,2289.9C2149.34,2289.9 2542.65,1944.23 2617.03,1491.75C2680.78,1444.78 2741.31,1392.84 2797.98,1336.16C2797.98,1336.16 2797.98,1336.16 2797.98,1336.16L2797.98,1336.16L2493.14,1082.33L2583.69,1042.96C2459.87,659.841 2100.05,382.417 1675.94,382.417C1202.53,382.417 809.222,728.081 734.849,1180.57C671.092,1227.53 610.568,1279.48 553.89,1336.16L553.89,1336.16C553.89,716.883 1056.66,214.11 1675.94,214.11C2169.09,214.11 2588.37,532.952 2738.69,975.563L2820.25,940.099L2797.98,1336.16L2797.98,1336.16Z" style="fill:rgb(35,31,32);"/>
                    </g>
                    <g transform="matrix(1,0,0,1,-52.1538,-0.20207)">
                        <path d="M2140.78,1178.21C2144.03,1198.45 2145.71,1219.21 2145.71,1240.36C2145.71,1455.54 1971.27,1629.98 1756.09,1629.98C1540.91,1629.98 1366.47,1455.54 1366.47,1240.36C1366.47,1025.18 1540.91,850.737 1756.09,850.737C1784.48,850.737 1812.17,853.774 1838.83,859.541C1831.4,883.271 1827.4,908.515 1827.4,934.694C1827.4,1073.46 1939.89,1185.95 2078.66,1185.95C2100.1,1185.95 2120.91,1183.27 2140.78,1178.21Z" style="fill:rgb(0,175,255);"/>
                    </g>
                </g>
                <g transform="matrix(0.430594,0,0,0.430594,2947.67,814.286)">
                    <path d="M887.833,2390.31C665.458,2390.31 495.617,2327.83 378.309,2202.87C261.002,2077.91 202.348,1902.72 202.348,1677.28L202.348,1579.36L594.054,1579.36C594.054,1640.56 595.839,1692.84 599.409,1736.19C602.979,1779.54 610.63,1823.66 622.36,1868.55C634.091,1913.43 650.157,1949.39 670.559,1976.42C690.96,2003.45 719.522,2025.64 756.244,2042.98C792.967,2060.32 836.83,2068.99 887.833,2068.99C938.836,2068.99 982.699,2060.32 1019.42,2042.98C1056.14,2025.64 1084.71,2003.45 1105.11,1976.42C1125.51,1949.39 1141.58,1913.43 1153.31,1868.55C1165.04,1823.66 1172.69,1779.54 1176.26,1736.19C1179.83,1692.84 1181.61,1640.56 1181.61,1579.36C1181.61,1422.27 1151.27,1301.39 1090.57,1216.72C1029.88,1132.06 929.656,1089.72 789.906,1089.72L789.906,698.018C932.716,698.018 1033.7,668.691 1092.87,610.038C1152.03,551.384 1181.61,450.142 1181.61,306.313C1181.61,176.764 1160.19,79.093 1117.35,13.298C1074.51,-52.496 998,-85.393 887.833,-85.393C836.83,-85.393 792.967,-76.723 756.244,-59.381C719.522,-42.04 690.96,-19.854 670.559,7.178C650.157,34.21 634.091,70.167 622.36,115.05C610.63,159.933 602.979,204.051 599.409,247.404C595.839,290.757 594.054,343.035 594.054,404.239L202.348,404.239L202.348,306.313C202.348,81.898 261.257,-93.044 379.074,-218.512C496.892,-343.98 666.478,-406.714 887.833,-406.714C1110.21,-406.714 1280.05,-344.235 1397.36,-219.277C1514.66,-94.319 1573.32,80.878 1573.32,306.313C1573.32,461.363 1538.64,588.616 1469.27,688.073C1399.91,787.529 1304.02,856.129 1181.61,893.871C1309.12,936.714 1406.28,1016.79 1473.1,1134.1C1539.91,1251.4 1573.32,1399.82 1573.32,1579.36C1573.32,1836.41 1518.23,2035.84 1408.07,2177.63C1297.9,2319.41 1124.49,2390.31 887.833,2390.31Z" style="fill:rgb(0,175,255);fill-rule:nonzero;"/>
                    <g transform="matrix(1,0,0,1,-60.3818,0)">
                        <path d="M2511.27,2068.99C2567.37,2068.99 2615.32,2055.22 2655.1,2027.68C2694.88,2000.13 2725.23,1961.88 2746.14,1912.92C2767.05,1863.95 2782.1,1812.19 2791.28,1757.61C2800.46,1703.04 2805.05,1643.62 2805.05,1579.36C2805.05,1540.59 2805.05,1511.27 2805.05,1491.38C2805.05,1471.48 2804.28,1443.18 2802.75,1406.45C2801.22,1369.73 2799.18,1341.43 2796.63,1321.53C2794.08,1301.64 2790.51,1276.4 2785.92,1245.79C2781.33,1215.19 2775.47,1191.48 2768.33,1174.64C2761.19,1157.81 2752.26,1137.92 2741.55,1114.97C2730.84,1092.02 2718.34,1074.42 2704.06,1062.18C2689.78,1049.94 2673.46,1037.7 2655.1,1025.46C2636.74,1013.22 2615.32,1004.55 2590.84,999.448C2566.35,994.348 2539.83,991.798 2511.27,991.798C2384.78,991.798 2286.86,1057.08 2217.49,1187.65L2217.49,1579.36C2217.49,1644.64 2222.08,1704.31 2231.26,1758.38C2240.44,1812.44 2255.49,1863.95 2276.4,1912.92C2297.31,1961.88 2327.66,2000.13 2367.44,2027.68C2407.22,2055.22 2455.17,2068.99 2511.27,2068.99ZM2511.27,2390.31C2417.42,2390.31 2332.25,2374.5 2255.74,2342.88C2179.24,2311.25 2114.72,2267.9 2062.18,2212.82C2009.65,2157.73 1965.28,2091.68 1929.07,2014.67C1892.85,1937.65 1866.59,1854.52 1850.27,1765.26C1833.94,1676.01 1825.78,1581.4 1825.78,1481.43L1825.78,600.092C1825.78,487.885 1832.41,384.093 1845.68,288.716C1858.94,193.34 1881.89,102.044 1914.53,14.828C1947.17,-72.387 1989,-146.597 2040,-207.801C2091,-269.005 2156.54,-317.458 2236.62,-353.161C2316.69,-388.863 2408.24,-406.714 2511.27,-406.714C2731.6,-406.714 2900.93,-344.235 3019.26,-219.277C3137.59,-94.319 3196.76,80.878 3196.76,306.313L2805.05,306.313C2805.05,175.744 2783.88,77.818 2741.55,12.533C2699.22,-52.751 2622.46,-85.393 2511.27,-85.393C2315.42,-85.393 2217.49,110.46 2217.49,502.165L2217.49,893.871C2292.97,763.303 2423.54,698.018 2609.2,698.018C2719.36,698.018 2813.46,717.145 2891.5,755.397C2969.53,793.65 3030.23,849.243 3073.58,922.178C3116.93,995.113 3148.3,1076.97 3167.68,1167.76C3187.06,1258.55 3196.76,1363.1 3196.76,1481.43C3196.76,1609.96 3184,1727.52 3158.5,1834.12C3133,1940.72 3093.73,2036.35 3040.68,2121.01C2987.64,2205.68 2916.24,2271.73 2826.47,2319.16C2736.7,2366.59 2631.64,2390.31 2511.27,2390.31Z" style="fill:rgb(0,175,255);fill-rule:nonzero;"/>
                    </g>
                    <g transform="matrix(1,0,0,1,-123.086,0)">
                        <path d="M4143.89,2390.31C3994.96,2390.31 3868.21,2355.12 3763.66,2284.73C3659.1,2214.35 3582.09,2119.23 3532.61,1999.37C3483.14,1879.51 3458.4,1739.51 3458.4,1579.36L3458.4,404.239C3458.4,152.282 3515.53,-45.866 3629.77,-190.205C3744.02,-334.544 3915.39,-406.714 4143.89,-406.714C4371.36,-406.714 4542.48,-334.289 4657.23,-189.44C4771.99,-44.59 4829.37,153.303 4829.37,404.239L4829.37,1579.36C4829.37,1825.19 4770.97,2021.81 4654.18,2169.21C4537.38,2316.61 4367.28,2390.31 4143.89,2390.31ZM4143.89,2068.99C4339.74,2068.99 4437.67,1905.78 4437.67,1579.36L4437.67,404.239C4437.67,349.155 4435.63,299.937 4431.55,256.584C4427.47,213.231 4419.05,169.369 4406.3,124.996C4393.55,80.623 4376.72,43.645 4355.81,14.063C4334.89,-15.519 4306.59,-39.49 4270.89,-57.851C4235.18,-76.213 4192.85,-85.393 4143.89,-85.393C4094.92,-85.393 4052.59,-76.213 4016.89,-57.851C3981.19,-39.49 3952.88,-15.519 3931.97,14.063C3911.06,43.645 3894.22,80.623 3881.47,124.996C3868.72,169.369 3860.31,213.231 3856.23,256.584C3852.15,299.937 3850.11,349.155 3850.11,404.239L3850.11,1579.36C3850.11,1643.62 3854.44,1702.78 3863.11,1756.85C3871.78,1810.91 3886.58,1862.42 3907.49,1911.39C3928.4,1960.35 3958.74,1998.86 3998.53,2026.91C4038.31,2054.96 4086.76,2068.99 4143.89,2068.99Z" style="fill:rgb(0,175,255);fill-rule:nonzero;"/>
                    </g>
                </g>
                <g transform="matrix(0.439244,0,0,0.439244,-1559.8,805.707)">
                    <g transform="matrix(1,0,0,1,-63.7459,0)">
                        <path d="M278.853,2362.77L278.853,-379.172L1356.04,-379.172L1356.04,-85.393L670.559,-85.393L670.559,795.945L1160.19,795.945L1160.19,1089.72L670.559,1089.72L670.559,2068.99L1356.04,2068.99L1356.04,2362.77L278.853,2362.77Z" style="fill:rgb(0,175,255);fill-rule:nonzero;"/>
                    </g>
                    <g transform="matrix(1,0,0,1,57.6845,0)">
                        <path d="M1438.67,2362.77L1925.24,941.304L1435.61,-379.172L1827.32,-379.172L2219.02,698.018L2610.73,-379.172L3002.43,-379.172L2512.8,935.184L2996.31,2362.77L2607.67,2362.77L2219.02,1187.65L1830.38,2362.77L1438.67,2362.77Z" style="fill:rgb(0,175,255);fill-rule:nonzero;"/>
                    </g>
                    <g transform="matrix(1,0,0,1,42.5166,0)">
                        <path d="M3625.18,795.945L3723.11,795.945C3811.86,795.945 3884.53,790.844 3941.15,780.644C3997.76,770.443 4047.74,751.317 4091.1,723.265C4134.45,695.213 4165.56,655.176 4184.43,603.152C4203.31,551.129 4212.74,484.824 4212.74,404.239C4212.74,306.313 4205.6,227.002 4191.32,166.308C4177.04,105.614 4150.77,55.886 4112.52,17.124C4074.27,-21.639 4024.79,-48.416 3964.1,-63.207C3903.41,-77.998 3823.08,-85.393 3723.11,-85.393L3625.18,-85.393L3625.18,795.945ZM3233.48,2362.77L3233.48,-379.172L3918.96,-379.172C4375.95,-379.172 4604.45,-118.035 4604.45,404.239C4604.45,627.634 4545.54,797.73 4427.72,914.528C4309.9,1031.33 4140.32,1089.72 3918.96,1089.72L3625.18,1089.72L3625.18,2362.77L3233.48,2362.77Z" style="fill:rgb(0,175,255);fill-rule:nonzero;"/>
                    </g>
                </g>
            </g>
        </g>
    </g>
</svg>
