<svg viewBox="0 0 7500 3500" xmlns="http://www.w3.org/2000/svg" fill-rule="evenodd" clip-rule="evenodd" stroke-linejoin="round" stroke-miterlimit="1.4"><path d="M586.3 3125.3v-271h-55.5V2815H686v39.4h-55.4v271h-44.3zm176.7 0V2815h44.4v133H885v-133h44.3v310.3H885v-144h-77.6v144H763zm265.6 0V2815h122v33.2H1073v99.7h55.4v33H1073v111h77.6v33h-122zM1502 2815h44.2v310.3H1502zm146.7 310.3V2815h61.3l44 237.5 44-237.6h61.3v310H1815v-245l-44.4 245h-33.2l-44.4-245v245h-44.3zm310 0V2815h61.2l44 237.5 44-237.6h61v310h-44v-245l-45 245h-33l-45-245v245h-44zm310 0V2815h122v33.2H2313v99.7h55v33h-55v111h77.5v33h-122zM2517 2948h11c18.6 0 32.5-4 41.7-11.8 9.2-7.8 14-20.5 14-38.2 0-17.6-4.8-30.4-14-38.2-9.2-7.7-23-11.6-41.6-11.6h-11v99.7zm-44.3 177.3V2815h55.4c34 0 58 6.3 75 19 17 13 25 34.2 25 64 0 18.5-3 34-10 46.5-6 12.4-16 21-29 25.6l50 156h-44l-44-144h-34v144h-44zm327.8 3c-28 0-49.3-8-64-24.5-14.7-16.4-23-38.8-24.7-67.2l44.3-11c3 44.3 17 66.4 45 66.4 22 0 33-11 33-33.2 0-6.6-1-12.7-2-18.3-1-5.6-4-10.7-8-15.4-3-4-7-8-10-11s-7-6-12-10l-56-44c-10-8-18-18-24-30s-9-26-9-42c0-23 7-41 21-54s33-20 56-20c26 0 46 6 60 19 15 13 24 30 28 52l1 10-44 11v-9c-2-14-6-25-13-33-6-9-17-13-30-13-10 0-18 3-24 9s-9 14-9 25c0 18 8 32 22 44l56 45c29 24 44 53 44 86 0 23-7 41-21 54s-33 19-56 19zm167-313.3h44.3v310.3h-44.3zm193.2 310.3l-66.5-310.4h44.4l32.7 166 11.4 77 11.8-78 32.8-167h44.3l-66.6 311h-44zm190 0V2815h122v33.2h-77.5v99.7h55.4v33h-55.4v111h77.6v33h-122zm552.3 3c-28 0-49.4-8-64-24.5-14.8-16.4-23-38.8-24.8-67.2l44.4-11c2.2 44.3 17 66.4 44.3 66.4 22 0 33-11 33-33.2 0-6.6-1-12.7-3-18.3-2-5.6-5-10.7-8-15.4-4-4-7-8-10-11s-7-6-13-10l-56-44c-10-8-19-18-25-30s-9-26-9-42c0-23 7-41 21-54s33-20 56-20c25 0 45 6 60 19s24 30 27 52c0 3 1 6 1 10l-45 11c0-2 0-5-1-9-2-14-6-25-13-33s-17-12-30-12c-11 0-19 3-25 9s-9 14-9 25c0 18 7.4 32 22 44l55.6 44c30 24 45 53 45 86 0 23-7 41-21 54s-33 19-56.5 19zm212-114h44.3l-22-133-22.3 133zm-66.5 111L4115 2815h44.3l66.7 310h-44.6l-16.6-77.6h-55.6l-16.6 77.6h-44.3zm257.3 0V2815h44.3v277h78v33.3h-122zm197.5 0V2815h122v33.2h-77.6v99.7h55.4v33h-55v111h78v33h-122zm285 3c-28 0-49.3-8-64-24.5-14.7-16.4-23-38.8-24.7-67.2l44.4-11c2.2 44.3 17 66.4 44.3 66.4 22.2 0 33.3-11 33.3-33.2 0-6.6-1-12.7-2.7-18.3-2-5.6-5-10.7-9-15.4-4-4-7-8-10-11s-7-6-13-10l-55-44c-11-8-19-18-25-30s-9-26-9-42c0-23 7-41 21-54s33-20 56-20c25 0 45 6 60 19s24 30 27 52c0 3 1 6 1 10l-45 11c0-2-1-5-1-9-2-14-7-25-13-33-7-8-17-13-31-13-11 0-19 3-25 9s-9 14-9 25c0 18 7 32 22 44l55 45c29.2 24 44 53 44 86 0 23-7 41-21 54s-33 19-56.7 19zm513 0c-28 0-49.3-8-64-24.5-14.8-16.4-23-38.8-24.7-67.2l44.3-11c2 44.3 17 66.4 44 66.4 22 0 33-11 33-33.2 0-6.6-1-12.7-3-18.3-2-5.6-5-10.7-8-15.4-4-4-7-8-10-11s-7-6-13-10l-56-44c-10-8-18-18-25-30-6-12-9-26-9-42 0-23 7-41 21-54s33-20 56-20c25 0 45 6 60 19s24 30 27 52l1 10-45 11c0-2-1-5-1-9-2-14-6-25-13-33s-17-13-30-13c-11 0-19 3-25 9s-9 14-9 25c0 17 7.4 32 22 44l55.6 45c29.7 24 44.5 53 44.5 86 0 23-7 41-21 54s-33 19-57 19zm245 0c-15.6 0-29-2.3-40.2-7-11-4.7-20-11.7-26-21-6-9-11-19.6-14-32s-4-26.5-4-43V2913c0-16.3 2-30.6 5-42.7 3-12 8-22.6 15-31.6s16-15.7 27-20.2 25-6.7 41-6.7c31 0 52 8.6 66 26 13 17.3 20 42.3 20 75v112.7c0 16-1 30.2-4 42.5s-8 23-14 32.3c-6.4 9-15.3 16-26.4 21-11 4.7-24.4 7-40 7zm0-36.3c15.5 0 26.3-4.6 32.3-14 6-9.3 9-23.2 9-41.4v-134.8c0-18-3-31.4-9-40.3-5.8-9-16.6-13.3-32.3-13.3-15.8 0-26.5 4.4-32.4 13.3-6 9-9 22.3-9 40.3v134.8c0 18.2 3 32 9 41.4 6 9.4 16 14 32 14zm179.3 33.3V2815h44.3v277h77v33.3h-122zm283.8 3.3c-13.5 0-25.4-1.8-35.7-5.4-10.3-3.6-18.7-8.6-25.4-15-6.6-6.4-12-14.4-16.2-24-4-9.8-7-20.3-8-31.6-1-11.2-2-24-2-38.2V2815h45v199.4c0 9.6 1 17.6 1 24l3 20.8c2 7.3 4 13.2 7 17.6 3 4.4 8 8 13 11 6 2.8 13 4.2 21 4.2s15-1.4 21-4.3c6-3 10-6.5 13-11 3-4.3 6-10.2 7-17.5 2-7.3 3-14.2 3-20.7 1-6.5 1-14.5 1-24V2815h45v199.3c0 14.2 0 27-2 38.2-2 11.3-5 21.8-9 31.5-4 9.8-9 17.8-16 24.2-7 6.4-15 11.4-25 15-10 3.6-22 5.4-35 5.4zm218.6-3.3v-271h-55.4V2815h155.2v39.4h-55.4v271H6228zm178.8-310.3h44.3v310.3h-44zm227 313.4c-15.7 0-29-2.4-40-7-11.3-4.8-20-11.8-26.8-21-6.6-9-11.4-19.7-14.4-32s-4.5-26.6-4.5-43V2913c0-16.3 2-30.6 5-42.7 3-12 8-22.6 15-31.6s16-15.7 27-20.2 25-6.7 40-6.7c31 0 52 8.6 66 26 14 17.3 20 42.3 20 75v112.7c0 16-1 30.2-4 42.5s-8 23-14 32.3c-6 9-15 16-26 21-11 4.7-25 7-40 7zm0-36.4c15.5 0 26.3-4.6 32.2-14 6-9.3 9-23.2 9-41.4v-134.8c0-18-3-31.4-9-40.3-5.8-9-16.6-13.3-32.3-13.3-15.7 0-26.5 4.4-32.4 13.3-6 9-8.8 22.3-8.8 40.3v134.8c0 18.2 3 32 9 41.4 5.8 9.4 16.6 14 32.2 14zm179.2 33.3V2815h33.3l77.6 191.8v-192h44v310.5h-32l-80-206.5v206.5h-44z" fill="#231F20" fill-rule="nonzero"/><circle cx="682" cy="679.1" r="561" fill="#fff" transform="matrix(1.99992 0 0 1.7067 2382.205 334.385)"/><path d="M4868.2 1493.5c0 619.2-502.7 1122-1122 1122-493.2 0-912.4-318.8-1062.8-761.4l-81.4 36 22-396 305 254-91 40c124 383 483.8 661 908 661 473.4 0 866.7-345 941-798 64-47 124.4-99 181-155l-304.8-254 90.5-39C4530 818 4170.2 540 3746 540c-473.4 0-866.7 345.7-941 798.2-64 46.3-124.4 98.3-181 155 0-619.3 502.7-1122 1122-1122 493 0 912.4 319 1062.7 761.4l81.5-35.6-22.3 396z" fill="#231F20"/><path d="M4131 1431.3c3 20.3 4.8 41 4.8 62.2 0 215-174.4 389.6-389.6 389.6-215.2 0-389.6-174-389.6-389s174.4-390 389.6-390c28.4 0 56 3 82.7 9-8 24-12 49-12 75 0 139 112 251 251 251 21 0 42-2 62-7z" fill="#00AFFF"/><path d="M5325.5 2096.8c-95.7 0-169-27-219.4-80.7-50-53-75-129-75-226v-42h168c0 26 1 49 3 68s5 38 10 57c5 20 12 35 21 47s21 21 37 29 35 11 57 11 41-3 57-11c16-7 28-17 37-29 9-11 16-27 21-46s9-38 10-57c2-18 2-41 2-67 0-68-13-120-39-156s-69-54-129-54v-169c62 0 105-13 131-38s38-69 38-131c0-55-9-98-27-126s-51-42-99-42c-22 0-41 4-57 11-16 8-29 17-37 29-9 12-16 27-21 46-5 20-8 39-10 57-2 19-2 42-2 68h-169v-43c0-96 25-172 76-226s124-81 219-81c96 0 169 27 219 81 51 54 76 130 76 227 0 67-15 122-45 165s-71 72-124 89c55 19 97 53 126 104 29 50.8 44 114 44 192 0 111-24 197-71 258s-122 91.6-224 91.6zm673-138.3c24 0 45-6 62-17.8 17-12 30-28.3 39-49.4 9-21 15.7-43.4 19.6-67 4-23.4 6-49 6-76.6v-38c0-8.5 0-20.7-1-36.5 0-15.8-1-28-2-36.6-1-8.5-2-19.4-4-32.6-2-13.2-4-23.4-7-30.6-3-7.3-7-15.8-11-25.7-4-10-10-17.5-16-22.7-6-5.3-13-10.6-21-16-8-5-17-9-27-11-10-2.2-22-3.3-34-3.3-54 0-97 28-126 84.3v168.7c0 28 2 53.8 6 77 4 23.3 11 45.5 20 66.6 9 21 22 37.5 39 49.4 17 12 38 17.8 62 17.8zm0 138.3c-40.3 0-77-6.8-110-20.4-33-13.6-60.7-32.3-83.3-56-22.6-23.7-41.7-52-57.3-85.3-16-33-27-69-34-107s-11-79-11-122v-380c0-48 3-93 8-134s15-80 29-118c14-37 32-69 54-96 22-26 50-47 84-62s74-23 118-23c95 0 167 27 218 81s76 129 76 227h-168c0-56-9-98-28-126-18-28-51-42-99-42-85 0-127 85-127 253v168c33-56 89-84 169-84 47 0 88 8 122 25 33 16 59 40 78 72 18 31 32 67 40 106s13 84 13 135c0 56-6 106-17 152s-28 87-51 124c-23 36-54 64-93 85-38.3 20-84 30-135.3 30zm676 0c-64 0-118.6-15-163.7-45.4-45-30.3-78-71.3-99.4-123-21.3-51.5-32-111.8-32-180.7v-506c0-108.5 24.6-194 73.8-256 49.2-62.2 123-93.2 221.4-93.2 98 0 171.6 31.2 221 93.5 49.4 62.4 74 147.6 74 255.7v506c0 105.8-25 190.5-75.3 254-50.3 63.4-123.5 95-219.7 95zm0-138.3c84.4 0 126.6-70.3 126.6-210.8v-506c0-23.8 0-45-2-63.6-1-18-5-37-11-56-5-19-13-35-22-48-9-12-21-23-36-31s-33-12-54-12-39 4-54 12-27 18-36 31-16 29-21 48-9 38-11 57c-1 19-2 40-2 64v506c0 28 2 53 6 77s10 46 19 67 22 38 39 50 38 18 63 18zM530.3 2096.8V892.5h473v129h-301v387h215v129.2h-215v430h301v129h-473zm562.7 0l213.8-624.3-215-580h172l172 473 172-473h172l-215 577.3 212.4 627h-170.7l-170.7-516-170.7 516h-172zm953.8-688.2h43c39 0 71-2.2 95.8-6.7 24.8-5 46.8-13 65.8-26s32.7-30 41-53c8.3-23 12.5-52 12.5-88 0-43-4-78-10-105-7-27-18-49-35-66s-39-29-65-35c-27-7-62-10-106-10h-43v387zm-172 688.2V892.5h301c200.8 0 301 114.7 301 344 0 98.2-25.8 173-77.5 224.2-51.8 51.3-126.2 77-223.5 77h-129v559h-172z" fill="#00AFFF" fill-rule="nonzero"/></svg>