<?xml version="1.0" encoding="utf-8"?>
<!-- Generator: Adobe Illustrator 15.1.0, SVG Export Plug-In . SVG Version: 6.00 Build 0)  -->
<!DOCTYPE svg PUBLIC "-//W3C//DTD SVG 1.1//EN" "http://www.w3.org/Graphics/SVG/1.1/DTD/svg11.dtd">
<svg version="1.1" id="Ebene_1" xmlns="http://www.w3.org/2000/svg" xmlns:xlink="http://www.w3.org/1999/xlink" x="0px" y="0px"
	 width="174px" height="60px" viewBox="0 0 174 60" enable-background="new 0 0 174 60" xml:space="preserve">
<g>
	<path fill="#B2B2B2" d="M22.177,36.996l-0.103-0.146l-0.175,0.146c-0.307,0.746-0.906,1.242-1.3,1.885
		c-0.439,0.658-1.023,1.126-1.257,1.9c-0.044,0.218-0.438,0.351-0.321,0.658c-0.176,0.205,0.087,0.482,0,0.773
		c0.35,0.63,1.154,0.906,1.87,1.023c0.379,0.015,0.658-0.117,0.906-0.394c0-0.118-0.029-0.249,0.102-0.308
		c0.016-0.511,0.278-0.965,0.175-1.477c-0.043-0.262,0.263-0.438,0-0.626c-0.014-0.132,0-0.278,0.103-0.322V36.996z M22.703,34.818
		l-0.029,0.308c-0.087,0.087-0.117,0.262-0.103,0.424c0.249,1.051,0.088,2.278,0.132,3.404c-0.22,0.424,0.029,1.096-0.205,1.548
		c-0.029,0.25,0.088,0.613-0.103,0.76c0.117,0.674-0.205,1.155-0.218,1.754c-0.175,0.351-0.497,0.526-0.761,0.643
		c-0.263-0.19-0.702-0.015-0.92-0.219c-0.292,0.132-0.292-0.218-0.599-0.103c-0.379-0.366-0.892-0.599-1.081-1.051
		c-0.19-0.146-0.103-0.512-0.074-0.731c0.103-0.162,0.074-0.424,0.22-0.6c0.117-0.379,0.467-0.57,0.482-0.979
		c0.555-0.613,0.803-1.243,1.329-1.87c0.162-0.263,0.219-0.57,0.57-0.761c-0.074-0.394,0.483-0.439,0.38-0.848
		c0.162-0.146,0.162-0.452,0.351-0.598c0.117-0.467-0.087-1.097,0.175-1.476C22.469,34.467,22.616,34.687,22.703,34.818"/>
	<path fill="#B2B2B2" d="M8.469,56.285c-0.146-0.029-0.306,0.015-0.248,0.204c0.38,0.249,0.745,0.321,1.125,0.556
		c0.481,0.044,0.876,0.349,1.402,0.292c1.009,0.454,1.944,0.029,3.011,0.029c0.013-0.176,0.204-0.073,0.321-0.103
		c0.014-0.233,0.335,0.015,0.351-0.219c0.468,0.029,0.73-0.277,1.125-0.38c0.029-0.161,0.16-0.087,0.205-0.248
		c-0.292-0.146-0.512,0.117-0.804,0.073c-0.292,0.233-0.789-0.014-1.081,0.205c-1.462-0.029-2.968,0.087-4.354-0.102
		c-0.176-0.219-0.557,0.014-0.732-0.205C8.674,56.358,8.484,56.46,8.469,56.285 M18.787,53.26c-0.263,0.205-0.629,0.336-0.92,0.423
		c-0.044,0.016-0.118-0.014-0.102-0.072c-0.044,0.233-0.365,0.189-0.424,0.146c-0.015,0.409-0.527,0.059-0.555,0.425
		c-0.425-0.206-0.497,0.409-0.951,0.204c0,0.043,0.015,0.087-0.029,0.102c-0.276,0.073-0.599,0.103-0.818,0.278
		c-0.512-0.132-0.643,0.408-1.227,0.218c-0.41,0.147-0.878,0.132-1.287,0.278c-0.365,0.219-0.555-0.291-0.876,0.029
		c-0.264-0.35-0.526,0.248-0.775-0.103c-0.76,0.321-1.461-0.16-2.279,0l-0.074-0.101c-0.219,0.072-0.351-0.22-0.555-0.074
		c-0.087-0.247-0.38-0.042-0.468-0.205c-0.438,0.088-0.467-0.393-0.906-0.321c-0.074,0.073-0.132,0.116-0.103,0.249
		c0.234,0.306,0.336,0.657,0.658,0.802c0.292,0.016,0.6,0.088,0.818,0.22c1.3,0.189,2.615,0.337,4.033,0.278
		c0.088,0,0.088,0.117,0.132,0.175l1.052,0.204l-0.906-0.307c0.438-0.146,1.038-0.029,1.476-0.118
		c0.263-0.087,0.643,0.074,0.876-0.131c0.336,0.059,0.614-0.131,0.876-0.219c0.337-0.029,0.571-0.191,0.876-0.233
		c0.146-0.045,0.468-0.059,0.555-0.22c0.029-0.058,0.088-0.014,0.146-0.029c0.716-0.292,1.418-0.819,2.032-1.373
		c0.19-0.075,0.292-0.205,0.307-0.424C19.225,53.273,18.947,53.085,18.787,53.26 M18.641,48.978
		c-0.088,0.132-0.278,0.204-0.321,0.292c-0.264,0.483-0.337,0.98-0.351,1.579c0.029,0.264,0.087,0.526,0.146,0.76
		c0.029,0.087,0.131,0.146,0.205,0.175c-0.045,0.25,0.292,0.308,0.321,0.468h0.351v-0.073c0.189-0.059,0.438-0.059,0.629,0
		c0.263,0.219-0.059,0.364-0.103,0.555c0.044,0.059,0.117,0.029,0.176,0.073c0.161-0.015,0.249-0.189,0.204-0.351
		c0.22-0.394,0.292-0.863,0.496-1.256c0.176-0.22,0.103-0.672,0.074-0.922c-0.146-0.423-0.526-0.876-0.876-1.081
		c-0.22,0.117-0.147-0.233-0.351-0.102C19.137,48.89,18.845,49.022,18.641,48.978 M2.333,48.978l0.072,1.346
		c0.175,0.058,0.103,0.218,0.103,0.379c0.13,0.379,0.351,0.643,0.424,1.081c0.189,0.439,0.322,0.893,0.701,1.227
		c0.218,0.424,0.599,0.818,0.949,1.054c0.235,0.263,0.396,0.584,0.804,0.599c-0.029-0.147,0.059-0.351-0.072-0.452
		c-0.41-0.162-0.162-0.703-0.352-1.024c-0.307-0.118,0.015-0.613-0.381-0.656c-0.059-0.249-0.292-0.322-0.394-0.527
		c-0.38,0.044-0.424-0.322-0.482-0.599c-0.117-0.175-0.438-0.262-0.423-0.526C3.15,50.791,3.137,50.645,3.004,50.6
		C2.8,50.57,2.932,50.338,2.888,50.207c-0.424,0.117,0-0.454-0.379-0.381c0.306-0.248-0.132-0.511-0.029-0.848H2.333z
		 M18.845,13.499c-0.555-0.015-1.023,0.248-1.505,0.452c-0.059,0.234-0.292,0.146-0.381,0.322c-0.496,0.175-0.833,0.57-1.227,0.907
		c-0.204,0.059-0.321,0.292-0.497,0.379c0.014,0.264-0.41,0.189-0.352,0.497c-0.335,0.277-0.701,0.672-0.905,1.125
		c-0.365,0.13-0.307,0.555-0.452,0.832c-0.278,0.205-0.176,0.6-0.499,0.746c-0.292,0.818-0.54,1.344-0.73,2.207
		c-0.175,0.029,0.03,0.337-0.175,0.321l-0.072,0.905c-0.175,0.133-0.087,0.409-0.103,0.63c-0.233,0.219,0.016,0.627-0.219,0.846
		c-0.116,1.768-0.19,3.552-0.204,5.363c-0.117,0.701-0.22,1.403-0.175,2.177c-0.191,0.176-0.074,0.527-0.104,0.805
		c-0.233,0.189,0.016,0.643-0.219,0.876c-0.102,0.526-0.205,1.068-0.351,1.578h-0.029c0.044,0.322-0.205,0.468-0.218,0.731
		c0.088,0.015,0.058,0.219,0.218,0.147c0.176-0.059,0.22-0.278,0.25-0.454c0.218,0-0.029-0.292,0.204-0.292
		c-0.029-0.25,0.146-0.321,0.321-0.483c0.088-0.526,0.512-0.817,0.454-1.402c0.131-0.221,0.175-0.585,0.205-0.848
		c0.233-0.541,0.146-1.213,0.218-1.827c-0.16-0.409-0.043-0.877,0.104-1.257c-0.234-0.117,0.014-0.468-0.22-0.555v-2.324
		l-0.102-0.072v-1.563c0.233-0.191-0.015-0.571,0.218-0.746c0.015-0.687,0.205-1.373,0.483-1.885
		c-0.103-0.263,0.219-0.248,0.102-0.497c0-0.058,0.059-0.103,0.117-0.103c0.015-0.117-0.073-0.307,0.103-0.322
		c0.249-0.672,0.57-1.27,0.804-1.928c0.205-0.117,0.248-0.322,0.322-0.526c0.234-0.073,0.219-0.454,0.409-0.554
		c0.131-0.25,0.321-0.571,0.468-0.805c0.146-0.101,0.102-0.277,0.307-0.35c0.029-0.234,0.364-0.424,0.394-0.643l1.185-1.155
		c0.262-0.043,0.321-0.467,0.599-0.424c0.335-0.453,0.949-0.381,1.374-0.73L18.845,13.499z M17.032,13.074
		c-0.627,0.176-1.183,0.601-1.694,0.98c-0.308,0.482-0.775,0.717-1.11,1.198c-0.263,0.22-0.408,0.483-0.745,0.775
		c-0.629,0.717-0.98,1.418-1.36,2.279c0,0.424-0.292,0.614-0.292,1.053c-0.146,0.189-0.117,0.526-0.306,0.73
		c0.014,0.263-0.162,0.439-0.146,0.702c-0.162,0.278-0.235,0.729-0.352,1.08c0.132,0.396-0.219,0.6-0.102,0.995
		c-0.234,0.453-0.146,1.052-0.204,1.579c-0.117,0.35-0.234,0.716-0.175,1.154c-0.234,0.321,0.014,0.935-0.22,1.257
		c0.015,0.438-0.014,0.847-0.102,1.226c0.087,0.848-0.146,1.563-0.205,2.354c-0.117,0.146-0.234,0.277-0.175,0.525
		c-0.22,0.396-0.278,0.834-0.497,1.258c-0.015,0.176-0.22,0.176-0.146,0.394c-0.235,0.234-0.22,0.526-0.411,0.761
		c-0.218,0.131-0.306,0.41-0.422,0.599c-0.848,1.097-1.726,2.222-2.528,3.259c-0.029,0.205-0.351,0.248-0.321,0.498
		c-0.482,0.672-1.009,1.445-1.287,2.178c-0.307,0.218-0.292,0.481-0.423,0.773c-0.103,0.628-0.658,0.95-0.6,1.68
		c-0.205,0.044-0.042,0.308-0.146,0.425c-0.278,0.365,0,0.979-0.351,1.285c-0.074,0.205,0.131,0.19,0.249,0.176
		c0.16-0.452,0.526-0.701,0.627-1.227c0.162-0.175,0.38-0.292,0.395-0.555c0.277-0.132,0.205-0.496,0.481-0.525
		c0.761-1.068,1.973-2.077,2.88-3.056c0.526-0.306,0.978-0.744,1.329-1.227c0.22,0.058,0.162-0.205,0.292-0.277l0.731-0.732
		c0.087-0.161,0.072-0.379,0.175-0.497c0.131-0.262,0.015-0.583,0.248-0.773c0.162-0.103-0.043-0.396,0.176-0.453
		c0.015-0.351,0.19-0.643,0.175-1.022c0.044-0.147,0.146-0.191,0.103-0.38c0.234-0.161-0.015-0.585,0.205-0.775
		c0.029-0.396,0.16-0.658,0.117-1.081c0.218-0.089-0.029-0.439,0.204-0.571c-0.044-0.905,0.132-1.592,0.073-2.514
		c0.19-0.276,0.03-0.715,0.176-1.022h0.029c0.101-0.876-0.176-1.768-0.029-2.63h0.029v-1.329c0.188-0.074,0.072-0.35,0.101-0.526
		c0.234-0.19-0.013-0.615,0.22-0.775c-0.132-0.409,0.219-0.613,0.102-1.008c0.162-0.189,0.132-0.511,0.176-0.775
		c-0.014-0.146,0.175-0.117,0.103-0.276c0.16-0.234,0.117-0.556,0.218-0.819c0.234-0.497,0.351-0.95,0.702-1.403
		c0.469-0.832,1.008-1.739,1.783-2.455c0.364-0.219,0.789-0.788,1.155-1.008c0.51-0.584,1.256-0.746,1.856-1.155
		c0.628-0.48,1.782-0.117,2.528-0.321c0.102-0.35-0.292-0.087-0.351-0.321C18.977,12.738,17.822,12.593,17.032,13.074 M23.447,8.164
		c0.147,0.366-0.058,0.922,0.206,1.257c0.438,0.029,0.745-0.263,0.949-0.556c0.117-0.233-0.189-0.263-0.248-0.379
		c-0.175-0.146-0.409-0.205-0.555-0.322C23.653,8.208,23.55,8.078,23.447,8.164 M22.645,7.785c-0.059,0.117-0.337,0.044-0.496,0.059
		c-0.059,0.277,0.379,0.321,0.276,0.643c0.117,0.103,0.175,0.321,0.351,0.35C22.833,8.443,22.688,8.136,22.645,7.785 M17.34,7.039
		c-0.278,0.117-0.584,0.351-0.876,0.424c-0.337,0.043-0.629,0.19-0.906,0.38c-0.411,0-0.6,0.263-0.979,0.321
		c-0.584,0.351-1.243,0.555-1.827,0.906c-0.249-0.072-0.205,0.234-0.35,0.322L12.05,9.319C12.459,9.553,13,9.524,13.409,9.67v0.043
		l0.526,0.058c0.189,0.104,0.497-0.058,0.598,0.146c0.162,0.029,0.424-0.087,0.497,0.103c0.234,0.044,0.527-0.087,0.703,0.103
		c0.38-0.059,0.773,0.132,1.081-0.03c0.542-0.451,1.111-0.802,1.623-1.153c0.409-0.365,0.935-0.511,1.285-0.803
		c0.337,0.014,0.468-0.279,0.746-0.322c0.175-0.016,0.335,0.015,0.453,0.146c-0.014,0.102,0.029,0.219-0.03,0.306
		c-0.102,0.015-0.248,0.118-0.321,0.177c-0.452,0-0.627,0.409-1.052,0.452C18.83,9.159,18.29,9.7,17.589,9.992
		c-0.117,0.072-0.073,0.248-0.029,0.35c0.409,0.015,0.877-0.059,1.256,0.073c0.497-0.132,1.139-0.059,1.724-0.073
		c0.175-0.191,0.483-0.074,0.73-0.102c0.029-0.206,0.249-0.073,0.381-0.117c0.335-0.147,0.773-0.103,1.051-0.306
		c0.029-0.191-0.029-0.279-0.175-0.395c-0.132-0.293-0.191-0.614-0.409-0.877c-0.322-0.292-0.379-0.629-0.702-0.833
		c-0.263-0.292-0.745-0.014-1.023-0.248c-0.438,0.117-0.685-0.22-1.125-0.103c-0.189-0.219-0.555-0.014-0.773-0.175
		C18.056,7.289,17.807,6.981,17.34,7.039 M7.491,2.934C5.899,2.976,4.465,2.962,3.004,3.225c0.059,0.03,0.016,0.118,0.029,0.176
		C3.312,3.722,3.458,4,3.765,4.306c0.817,1.111,1.958,2.018,3.024,2.807c0.469,0.422,1.053,0.584,1.58,0.906
		c0.774,0.218,1.242,0.7,2.06,0.817c0.058-0.015,0.117,0.044,0.117,0.103h0.101c0.176,0.043,0.337,0.088,0.483,0.176
		c0.278,0.059,0.672,0.072,0.775-0.249c0.467-0.247,0.832-0.438,1.329-0.671c0.175-0.045,0.234-0.25,0.468-0.175
		c0.511-0.234,1.066-0.513,1.636-0.702c0.191-0.19,0.789-0.028,0.643-0.555h-0.569c-0.176-0.234-0.556,0.014-0.732-0.204
		c-0.423,0.073-0.701-0.162-1.124-0.074C13.365,6.25,12.927,6.5,12.707,6.265c-0.657,0.117-1.066-0.19-1.709-0.132V6.089L9.143,6.06
		L9.069,5.958H7.345L7.213,6.06c-0.467-0.059-1.11,0.147-1.403-0.175C6.074,5.68,5.562,5.636,5.84,5.432h2.834l0.074,0.102
		c0.088,0.029,0.16-0.03,0.175-0.102c0.088,0,0.175-0.015,0.22,0.072C9.23,5.534,9.42,5.578,9.493,5.432
		C9.595,5.446,9.756,5.387,9.77,5.534c0.117,0,0.249,0.029,0.308-0.102c0.292,0.189,0.701,0.072,1.052,0.102
		c0.22,0.19,0.57,0.073,0.848,0.102c0.073,0.205,0.292,0.235,0.497,0.219c0.263-0.087,0.775-0.087,1.053,0.058
		c0.935,0.104,1.87,0.234,2.804,0.352v0.043l0.701,0.074v0.029c0.483-0.117,0.673,0.234,1.155,0.102
		c0.571,0.103,1.169,0.249,1.71,0.278V6.659c-0.101-0.276-0.423-0.292-0.657-0.394c-0.263-0.307-0.731-0.248-1.053-0.454
		c-0.146-0.044-0.38-0.131-0.497-0.249c-0.263,0.029-0.395-0.146-0.6-0.204c-0.189-0.146-0.467-0.131-0.627-0.277
		c-0.104,0.013-0.22-0.015-0.25-0.104c-0.322,0.016-0.497-0.175-0.73-0.321c-0.438-0.043-0.717-0.351-1.126-0.379
		c-0.117-0.22-0.468-0.175-0.701-0.249c-0.629-0.147-0.993-0.439-1.651-0.423c0.074,0.481,0.643,0.57,0.876,0.906
		c0.205,0.321,0.57,0.263,0.819,0.467c0.189,0.22,0.657,0.337,0.803,0.629c-0.233,0.146-0.38-0.132-0.671-0.044
		c-0.76-0.277-1.374-0.643-2.002-1.183c-0.176-0.176-0.423-0.308-0.555-0.527c-0.351-0.117-0.438-0.643-0.848-0.599
		C10.004,3.139,9.565,3.036,9.069,3.08C8.66,2.817,8.017,2.992,7.491,2.934 M19.196,2.056c0,0.059,0.058,0.118,0.117,0.118h0.176
		c0.161,0.087,0.292,0.234,0.482,0.277h0.102c0.132,0.22,0.57,0.264,0.746,0.525c0.555,0.367,0.833,0.847,1.081,1.433
		c0.234,0.336,0.409,0.716,0.526,1.154h0.074c-0.044,0.233,0.321,0.35,0.204,0.57c0.336,0.498,0.234,1.168,0.702,1.606
		c0.395-0.042,0.643,0.293,0.993,0.322c0.132,0.133,0.38,0.146,0.409,0.381c0.204,0.16,0.351,0.306,0.292,0.599
		c-0.364,0.278-0.54,0.73-0.993,0.876c-0.175,0.117-0.351,0.161-0.409,0.38c0.191,0.819,0.059,1.754,0.103,2.63
		c0.218,0.146-0.176,0.308,0.102,0.424c-0.102,0.306,0.204,0.51,0,0.773c-1.257-0.029-2.382-0.379-3.654-0.101
		c-0.276-0.016-0.408,0.117-0.656,0.175c-1.447,0.35-2.484,1.271-3.406,2.353c-0.409,0.424-0.643,0.993-0.979,1.402
		c-0.131,0.162-0.16,0.496-0.394,0.585c-0.22,0.57-0.497,1.052-0.833,1.549v0.248c-0.059,0.132-0.16,0.308-0.277,0.454
		c0,0.248-0.219,0.408-0.219,0.671c-0.366,0.22-0.147,0.76-0.454,1.009c0,0.13-0.059,0.219-0.029,0.352
		c-0.219,0.145-0.03,0.511-0.219,0.7c0.072,0.497-0.117,0.964-0.103,1.476h-0.029c-0.189,0.571,0.205,0.876,0.059,1.476
		c0.015,0.335-0.029,0.702,0.044,1.008l0.029,2.981c-0.132,0.483-0.015,1.052-0.103,1.549h-0.029l-0.072,0.803
		c-0.132,0.073-0.044,0.321-0.175,0.38l-0.045,0.248c-0.131,0.016-0.014,0.191-0.102,0.25c-0.19,0.336-0.292,0.714-0.6,1.022
		c-0.365,0.57-0.775,1.198-1.155,1.71c-0.468,0.263-0.569,0.643-0.803,1.023c-0.175,0.6-0.541,1.168-0.804,1.782
		c-0.234,0.161-0.234,0.498-0.425,0.674c-0.263,0.92-1.007,1.534-1.299,2.454c-0.176,0.336-0.352,0.775-0.527,1.155
		c-0.043,0.35-0.189,0.584-0.277,0.876c-0.351,0.044-0.045,0.425-0.175,0.672c-0.117-0.043-0.103,0.103-0.103,0.175v0.103
		c-0.188,0.014-0.072,0.234-0.102,0.35c-0.19,0.38-0.366,0.717-0.321,1.155H5.635c0.043,0.438-0.233,0.657-0.175,1.082l-0.074,0.116
		L5.285,49.65c0.16,0.074-0.088,0.162,0,0.278c-0.03,0.6,0.043,1.081,0.058,1.622c-0.804-0.541-0.585-1.607-0.629-2.572
		c0.234-0.205-0.015-0.613,0.219-0.832V47.4h0.029c0.131-0.337,0.335-0.702,0.278-1.081c0.029-0.264,0.22-0.367,0.249-0.63
		c0.102-0.131,0.087-0.336,0.205-0.424c0.102-0.627,0.321-1.11,0.526-1.68h0.043c0.263-0.526,0.351-0.964,0.658-1.475
		c0.161-0.016,0.073-0.175,0.146-0.249c0.25-0.6,0.746-1.14,0.979-1.753c0.263-0.278,0.335-0.6,0.569-0.833
		c-0.072-0.191,0.088-0.176,0.132-0.322c-0.029-0.249,0.365-0.526,0.072-0.701c-0.364,0.175-0.555,0.773-1.051,0.877
		c-0.569,0.467-0.965,1.184-1.607,1.607c-0.38,0.32-0.658,0.774-0.993,1.17c-0.103,0.234-0.498,0.38-0.527,0.656
		c-0.175,0.19-0.481,0.438-0.452,0.774c-0.395,0.22-0.497,0.629-0.6,1.023H3.53c-0.072,0.103-0.029,0.249-0.043,0.379
		c-0.087-0.014-0.191,0-0.205,0.103c0.131,0.277-0.395,0.306-0.22,0.599c-0.059,0.058-0.146,0.074-0.175,0.176
		c-0.029,0.131,0.088,0.351-0.103,0.38c-0.014,0.584-0.146,1.286,0.219,1.754c0.029,0.32-0.087,0.729,0.104,0.95
		c-0.045,0.321,0.029,0.613,0.205,0.802c0.057,0.103,0.013,0.293,0.175,0.293c0.073,0.423,0.452,0.744,0.672,1.11
		c0.468,0.439,0.716,1.213,1.403,1.403c0.19,0.41,0.628,0.658,0.95,0.994c0.218,0.321,0.804,0.19,0.979,0.629
		c0.189,0.029,0.394,0.058,0.526,0.249c0.643,0.087,1.169,0.614,1.958,0.409c0,0.059,0.058,0.117,0.103,0.117
		c0.979,0.014,1.739-0.058,2.674,0.059c0.351-0.147,0.833,0.014,1.184-0.132c0.365,0.044,0.686-0.218,0.993-0.322
		c0.526-0.014,0.994-0.189,1.286-0.525c0.555-0.059,0.892-0.396,1.345-0.6c0.16-0.322,0.789-0.292,0.657-0.802
		c-0.189-0.322-0.364-0.527-0.598-0.878c0-0.131,0.029-0.293-0.103-0.351c0.044-0.439-0.088-0.978,0.103-1.33
		c0.029-0.468,0.322-0.994,0.702-1.154c0.233-0.074,0.657-0.161,0.993-0.074c0.614,0.453,1.49,0.833,1.578,1.754
		c0.191,0.424,0.512,0.102,0.761-0.028c0.088-0.205,0.409-0.059,0.497-0.25l0.146,0.029c-0.249,0.104-0.629,0.205-0.775,0.454
		c-0.175,0.058-0.321,0.248-0.424,0.394c-0.234,0.191,0.016,0.613-0.205,0.774c-0.072,0.366-0.218,0.717-0.218,1.11
		c0.964,0.132,1.577-0.438,2.148-1.081c-0.088-0.234,0.306-0.249,0.234-0.454c0.218-0.248,0.175-0.584,0.175-0.919
		c-0.162-0.409-0.6-0.175-0.876-0.35c0.248,0.159,0.409-0.484,0.569-0.132c0.497,0.204,0.555,0.746,0.6,1.256
		c0.014,0.409-0.292,0.761-0.424,1.097c-0.205,0.133-0.335,0.292-0.395,0.482c-0.497,0.511-1.081,0.686-1.71,0.848
		c-0.087,0.058-0.132,0.13-0.103,0.247c0.146,0.162,0.337,0.366,0.585,0.382c0.439,0.292,0.453,0.89,1.023,0.905
		c-0.015,0.189-0.292,0.117-0.35,0.248l-0.074,0.425c-0.833-0.292-1.301-1.213-2.002-1.724c-0.263-0.03-0.306,0.234-0.481,0.393
		c-0.687,1.097-2.192,1.491-3.127,2.31c-0.79,0.292-1.434,0.789-2.28,0.919c-0.278,0.205-0.701,0.104-0.979,0.278
		c-0.235,0.029-0.57-0.088-0.702,0.102h-2.279c-0.687-0.264-1.593-0.277-2.134-0.804c-0.423-0.204-0.802-0.496-1.197-0.745
		c-0.513-0.935-1.578-1.081-2.281-1.855c-0.292-0.117-0.656-0.527-0.803-0.775c-0.379-0.497-0.833-0.965-1.096-1.607
		c-0.292-0.336-0.233-0.906-0.584-1.228c-0.044-0.219-0.146-0.395-0.117-0.671l-0.103-0.058c0.044-0.658-0.38-1.054-0.175-1.726
		C1.544,48.423,1.821,48.175,1.631,48c0.146-0.131,0.014-0.366,0.102-0.527h0.044c-0.059-0.453,0.218-0.687,0.175-1.153
		c0.014-0.352,0.35-0.571,0.38-0.908c0.16-0.526-0.191-1.211,0.175-1.578c0.13-0.584,0-1.314,0.379-1.753
		c-0.015-0.262,0.234-0.395,0.146-0.673c0.22-0.219,0.292-0.54,0.38-0.847c0.204,0.044,0.044-0.204,0.146-0.277
		c0.233-0.583,0.701-1.199,1.022-1.754c0.146-0.467,0.469-0.905,0.761-1.3c0.189-0.088,0.102-0.394,0.321-0.381
		c0.146-0.292,0.364-0.496,0.497-0.772c0.657-0.731,1.33-1.462,1.885-2.236c0.292-0.337,0.54-0.775,0.773-1.125
		c-0.117-0.293,0.395-0.321,0.206-0.629c0.189-0.089,0.161-0.322,0.219-0.497h0.029c0.133-0.57,0.497-0.964,0.351-1.651
		c0.234-0.205-0.014-0.599,0.22-0.803c-0.059-0.717,0.059-1.375,0.175-2.032c0.029-0.278-0.087-0.6,0.102-0.804
		c0.029-0.35-0.088-0.746,0.103-1.022c0.014-0.499,0.087-1.009,0.205-1.433c0.043-0.219-0.088-0.497,0.117-0.628
		c0.058-0.498-0.029-1.052,0.204-1.475c0.073-0.396,0.146-0.776,0.205-1.156c0.131-0.029,0.059-0.19,0.073-0.292
		c0.19-0.016,0.073-0.234,0.103-0.352c0.029-0.262,0.25-0.366,0.22-0.657c0.146,0-0.016-0.219,0.13-0.219
		c0.191-0.673,0.366-1.388,0.746-1.959c-0.016-0.175,0.394-0.292,0.306-0.554c0.278-0.366,0.409-0.542,0.746-0.848
		c0.453-0.672,1.081-1.183,1.578-1.827c0.233-0.131,0.438-0.35,0.658-0.525c1.154-0.848,2.674-1.125,4.283-0.98
		c0.13,0.205,0.467,0.044,0.671,0.147c0.218,0.146,0.584-0.103,0.803,0.132l0.424,0.043c0.045,0.132,0.25,0.016,0.351,0.103
		c0.467,0.102,0.746,0.511,1.256,0.453c0.175-0.059,0.131-0.351,0.044-0.453c-0.205-0.292-0.074-0.775-0.117-1.154
		c0.262-0.279-0.015-0.6-0.029-0.876c-0.117-0.205-0.337-0.41-0.672-0.323c-0.279,0.147-0.6,0.131-0.906,0.278
		c-0.395,0.028-0.775,0.073-1.126,0.219c-0.131-0.059-0.263-0.175-0.379,0h-2.105l-0.101-0.117h-1.58
		c-0.146-0.19-0.467-0.058-0.701-0.103c-0.13-0.219-0.497-0.015-0.672-0.176l-0.424-0.03c-0.059-0.146-0.306-0.014-0.423-0.102
		c-0.307-0.175-0.76-0.117-1.155-0.175c-0.146-0.147-0.38-0.176-0.6-0.22c-0.336-0.132-0.832-0.336-1.227-0.103
		c-0.059,0.103-0.146,0.191-0.278,0.175c-0.014-0.292-0.043-0.598-0.38-0.671c-0.468-0.06-0.774-0.277-1.228-0.38
		c-0.102-0.161-0.35-0.103-0.454-0.322H8.543c-0.117-0.13-0.278-0.159-0.424-0.233C7.637,8.194,7.111,8.078,6.687,7.711
		C5.562,7.039,4.553,6.031,3.589,5.037C3.209,4.541,2.8,4.029,2.333,3.605c0.059-0.351-0.555-0.483-0.278-0.876l0.132-0.146
		L4.89,2.554c0.161-0.204,0.19,0.102,0.395,0C5.869,2.524,6.512,2.612,7.067,2.48c0.584,0.162,1.331-0.043,1.899,0.176
		c0.381-0.03,0.702,0.044,1.053,0.103c0.205-0.087,0.029-0.337,0.131-0.483c0.584,0.191,0.906,0.863,1.579,0.805
		c0.219,0.145,0.526,0.13,0.702,0.276c0.35,0.087,0.759,0.103,1.022,0.322h0.351c-0.014,0.132,0.161,0.015,0.204,0.103
		c0.424,0.117,0.876,0.482,1.404,0.497c0.481,0.438,1.256,0.395,1.796,0.73c0.293,0.059,0.527,0.132,0.732,0.351h0.247
		c0,0.133,0.175,0.073,0.205,0.146c0.351,0.234,0.73,0.249,1.097,0.38c-0.015,0.058,0.044,0.088,0.103,0.074h0.102
		c0.131,0.117,0.278,0.175,0.379,0.351c0.321,0.146,0.629,0.366,0.876,0.658c0.249,0.058,0.41,0.233,0.703,0.218
		c0.234,0.104,0.497,0.249,0.773,0.132c0.292-0.292-0.16-0.438-0.102-0.759c-0.103-0.234-0.205-0.557-0.424-0.747
		c-0.248-0.671-0.453-1.33-0.979-1.826V3.854c-0.365-0.248-0.673-0.643-1.081-0.745c-0.395-0.336-1.023-0.467-1.477-0.7
		c0.029-0.104-0.087-0.366,0.103-0.454C18.758,1.88,18.933,2.085,19.196,2.056"/>
	<path fill="#F9B122" d="M40.604,23.227c0-0.239-0.035-0.5-0.103-0.781c-0.069-0.283-0.201-0.547-0.396-0.794
		c-0.198-0.249-0.462-0.453-0.794-0.614c-0.333-0.164-0.757-0.245-1.268-0.245h-3.331v4.869h3.356c0.87,0,1.511-0.235,1.922-0.707
		C40.399,24.486,40.604,23.911,40.604,23.227 M34.711,34.783c0,0.238-0.039,0.388-0.115,0.446c-0.079,0.061-0.245,0.09-0.5,0.09
		h-2.691c-0.206,0-0.354-0.037-0.449-0.115c-0.093-0.077-0.14-0.217-0.14-0.422V18.922c0-0.478,0.104-0.857,0.308-1.14
		c0.206-0.281,0.615-0.421,1.23-0.421h6.277c0.921,0,1.755,0.141,2.498,0.421c0.744,0.283,1.374,0.67,1.896,1.167
		c0.521,0.495,0.918,1.084,1.192,1.768c0.273,0.683,0.41,1.435,0.41,2.254c0,0.444-0.069,0.995-0.206,1.653
		c-0.136,0.657-0.431,1.299-0.884,1.921c-0.453,0.625-1.11,1.158-1.973,1.601c-0.863,0.445-2.012,0.666-3.446,0.666h-3.407V34.783z"
		/>
	<path fill="#F9B122" d="M52.467,24.61c-0.702,0-1.273,0.25-1.717,0.744c-0.445,0.496-0.7,1.127-0.769,1.897h4.791
		c0-0.377-0.038-0.728-0.115-1.053c-0.076-0.324-0.201-0.601-0.371-0.832c-0.17-0.231-0.403-0.413-0.693-0.552
		C53.303,24.679,52.927,24.61,52.467,24.61 M52.389,21.537c1.999,0,3.497,0.499,4.496,1.498c1,1,1.5,2.43,1.5,4.292
		c0,0.888-0.171,1.495-0.512,1.818c-0.341,0.325-0.812,0.488-1.409,0.488h-6.559c0.017,0.546,0.106,1,0.269,1.357
		c0.162,0.359,0.381,0.649,0.653,0.871c0.273,0.221,0.594,0.376,0.962,0.461c0.366,0.085,0.764,0.129,1.19,0.129
		c0.495,0,0.999-0.06,1.512-0.179c0.512-0.12,0.99-0.274,1.435-0.46c0.205-0.07,0.346-0.091,0.423-0.065
		c0.076,0.025,0.149,0.105,0.216,0.243l0.82,1.844c0.069,0.155,0.082,0.275,0.039,0.36c-0.042,0.085-0.132,0.17-0.269,0.256
		c-0.631,0.409-1.366,0.704-2.204,0.883c-0.836,0.18-1.614,0.269-2.332,0.269c-2.238,0-3.894-0.555-4.971-1.666
		c-1.075-1.109-1.614-2.869-1.614-5.277c0-1.128,0.149-2.131,0.449-3.011c0.299-0.879,0.726-1.627,1.28-2.242
		c0.555-0.614,1.222-1.08,1.999-1.396C50.54,21.693,51.416,21.537,52.389,21.537"/>
	<path fill="#F9B122" d="M68.787,29.222h-2.024c-0.24,0-0.495,0.018-0.769,0.051c-0.273,0.035-0.525,0.115-0.755,0.244
		c-0.231,0.127-0.423,0.312-0.577,0.551c-0.154,0.239-0.23,0.564-0.23,0.974c0,0.597,0.2,1.015,0.603,1.255
		c0.4,0.239,0.943,0.357,1.626,0.357c0.103,0,0.239-0.003,0.41-0.012c0.172-0.008,0.354-0.026,0.552-0.051
		c0.195-0.025,0.396-0.059,0.601-0.102c0.205-0.043,0.393-0.099,0.564-0.167V29.222z M72.502,33.655c0,0.222-0.03,0.409-0.09,0.564
		c-0.06,0.154-0.208,0.299-0.447,0.436c-0.393,0.189-0.814,0.341-1.266,0.46c-0.452,0.12-0.912,0.214-1.38,0.283
		c-0.469,0.067-0.942,0.119-1.419,0.154c-0.478,0.034-0.929,0.051-1.355,0.051c-1.159,0-2.118-0.11-2.876-0.333
		c-0.758-0.221-1.369-0.525-1.828-0.909c-0.46-0.386-0.784-0.837-0.972-1.358c-0.188-0.521-0.28-1.08-0.28-1.679
		c0-0.665,0.11-1.275,0.332-1.832c0.223-0.554,0.554-1.037,0.999-1.446c0.444-0.411,1.003-0.732,1.679-0.962
		c0.674-0.23,1.473-0.346,2.396-0.346h2.818v-0.409c0-0.239-0.025-0.469-0.077-0.692c-0.051-0.221-0.158-0.415-0.32-0.576
		c-0.163-0.163-0.389-0.295-0.679-0.398c-0.29-0.102-0.674-0.152-1.153-0.152c-0.255,0-0.547,0.012-0.871,0.038
		c-0.324,0.026-0.649,0.061-0.973,0.103c-0.325,0.042-0.642,0.095-0.948,0.155c-0.308,0.06-0.581,0.123-0.82,0.191
		c-0.223,0.05-0.377,0.05-0.462,0c-0.085-0.05-0.145-0.161-0.179-0.334l-0.41-1.793c-0.051-0.186-0.056-0.321-0.012-0.396
		c0.042-0.078,0.131-0.141,0.269-0.194c0.769-0.272,1.575-0.469,2.42-0.589c0.847-0.119,1.687-0.178,2.525-0.178
		c1.857,0,3.217,0.397,4.083,1.191c0.866,0.793,1.298,1.969,1.298,3.522V33.655z"/>
	<path fill="#F9B122" d="M79.65,35.244c-0.069,0.05-0.222,0.076-0.46,0.076h-2.615c-0.188,0-0.324-0.03-0.41-0.09
		c-0.085-0.059-0.126-0.182-0.126-0.371V23.945c0-0.667,0.115-1.174,0.346-1.524c0.229-0.351,0.72-0.586,1.473-0.706
		c0.306-0.034,0.624-0.064,0.948-0.09c0.324-0.026,0.656-0.039,0.999-0.039c1.126,0,2.243,0.145,3.343,0.436
		c1.102,0.29,2.081,0.752,2.935,1.383c0.136,0.104,0.201,0.201,0.192,0.295c-0.01,0.094-0.039,0.193-0.09,0.295l-1.332,2.127
		c-0.102,0.17-0.197,0.246-0.281,0.23c-0.086-0.017-0.223-0.085-0.411-0.206c-0.478-0.358-0.991-0.653-1.537-0.883
		c-0.546-0.23-1.162-0.355-1.844-0.372c-0.359,0-0.701,0.026-1.025,0.076v9.89C79.753,35.064,79.719,35.193,79.65,35.244"/>
	<path fill="#F9B122" d="M97.97,31.477c0,1.384-0.492,2.417-1.472,3.101c-0.982,0.682-2.269,1.024-3.857,1.024
		c-0.889,0-1.824-0.099-2.805-0.294c-0.983-0.197-1.849-0.518-2.602-0.961c-0.137-0.085-0.217-0.176-0.243-0.268
		c-0.026-0.093,0.003-0.227,0.089-0.398l0.743-1.767c0.084-0.188,0.175-0.304,0.269-0.347c0.094-0.042,0.235-0.021,0.424,0.065
		c0.273,0.119,0.58,0.235,0.921,0.346c0.343,0.11,0.697,0.209,1.064,0.295c0.366,0.085,0.72,0.153,1.064,0.204
		c0.341,0.051,0.649,0.076,0.921,0.076c0.615,0,1.046-0.105,1.293-0.319c0.248-0.213,0.372-0.482,0.372-0.806
		c0-0.343-0.173-0.633-0.524-0.872c-0.351-0.24-0.953-0.521-1.809-0.845c-0.682-0.256-1.284-0.521-1.805-0.794
		c-0.52-0.274-0.96-0.568-1.319-0.884c-0.359-0.316-0.633-0.675-0.82-1.076c-0.188-0.402-0.282-0.867-0.282-1.397
		c0-0.564,0.103-1.089,0.308-1.576c0.206-0.487,0.512-0.91,0.922-1.268c0.41-0.359,0.926-0.645,1.552-0.859
		c0.622-0.213,1.362-0.319,2.215-0.319c0.769,0,1.551,0.072,2.343,0.217c0.795,0.145,1.518,0.363,2.168,0.653
		c0.184,0.085,0.29,0.175,0.304,0.27c0.018,0.094-0.007,0.243-0.074,0.448l-0.641,1.64c-0.069,0.189-0.146,0.295-0.233,0.32
		c-0.084,0.025-0.221,0.005-0.41-0.064c-0.631-0.187-1.21-0.332-1.74-0.436c-0.53-0.101-1.077-0.154-1.64-0.154
		c-0.46,0-0.796,0.108-1,0.321c-0.207,0.214-0.307,0.433-0.307,0.654c0,0.342,0.156,0.623,0.474,0.845
		c0.317,0.222,0.866,0.478,1.652,0.768c0.616,0.239,1.197,0.484,1.742,0.731c0.547,0.248,1.021,0.537,1.422,0.87
		c0.401,0.334,0.722,0.731,0.962,1.192C97.851,30.273,97.97,30.828,97.97,31.477"/>
	<path fill="#B2B2B2" d="M116.236,31.374c0.069-0.153,0.173-0.401,0.309-0.742c0.137-0.343,0.286-0.709,0.45-1.103
		c0.161-0.393,0.309-0.759,0.447-1.101c0.139-0.342,0.239-0.589,0.309-0.743c0.152-0.359,0.336-0.809,0.548-1.347
		c0.216-0.536,0.451-1.109,0.706-1.715c0.257-0.607,0.519-1.234,0.782-1.883c0.266-0.649,0.513-1.259,0.745-1.833
		c0.231-0.572,0.442-1.088,0.641-1.549c0.195-0.462,0.346-0.82,0.447-1.077c0.153-0.392,0.317-0.645,0.488-0.756
		c0.17-0.11,0.419-0.166,0.741-0.166h0.59c0.445,0,0.74,0.102,0.884,0.306c0.146,0.205,0.217,0.479,0.217,0.82v16.501
		c0,0.136-0.029,0.227-0.089,0.269c-0.06,0.043-0.148,0.063-0.267,0.063h-1.205c-0.139,0-0.23-0.021-0.281-0.063
		c-0.052-0.042-0.079-0.132-0.079-0.269V20.818h-0.128l-1.283,3.152c-0.189,0.443-0.44,1.045-0.759,1.807
		c-0.316,0.76-0.645,1.555-0.988,2.383c-0.341,0.828-0.677,1.625-1,2.395c-0.326,0.768-0.582,1.367-0.77,1.793
		c-0.138,0.343-0.278,0.577-0.425,0.705c-0.145,0.128-0.388,0.192-0.732,0.192h-0.692c-0.342,0-0.591-0.064-0.745-0.192
		c-0.154-0.127-0.3-0.361-0.437-0.705c-0.188-0.444-0.443-1.05-0.77-1.819c-0.324-0.769-0.661-1.571-1.012-2.408
		c-0.352-0.837-0.691-1.64-1.015-2.408c-0.328-0.768-0.592-1.375-0.798-1.818l-1.181-2.872h-0.153v13.965
		c0,0.136-0.026,0.227-0.077,0.269c-0.049,0.043-0.142,0.063-0.276,0.063h-1.163c-0.136,0-0.228-0.021-0.278-0.063
		c-0.052-0.042-0.076-0.132-0.076-0.269V18.486c0-0.341,0.068-0.615,0.204-0.82c0.137-0.205,0.428-0.306,0.873-0.306h0.589
		c0.342,0,0.591,0.055,0.757,0.166c0.161,0.111,0.318,0.364,0.473,0.756c0.033,0.085,0.143,0.346,0.332,0.782
		c0.189,0.436,0.41,0.965,0.667,1.588c0.254,0.624,0.535,1.298,0.832,2.024c0.298,0.726,0.587,1.422,0.86,2.088
		c0.271,0.666,0.511,1.255,0.718,1.768c0.204,0.512,0.349,0.863,0.433,1.05c0.07,0.154,0.175,0.41,0.322,0.769
		c0.144,0.359,0.3,0.734,0.461,1.127c0.161,0.393,0.312,0.77,0.448,1.128c0.136,0.358,0.239,0.615,0.308,0.768H116.236z"/>
	<path fill="#B2B2B2" d="M137.248,27.556c0-0.58-0.06-1.134-0.18-1.664c-0.12-0.529-0.322-0.996-0.604-1.398
		c-0.283-0.4-0.674-0.72-1.169-0.959c-0.499-0.24-1.114-0.36-1.852-0.36c-0.602,0-1.135,0.115-1.605,0.346
		c-0.471,0.23-0.872,0.543-1.196,0.936c-0.326,0.393-0.577,0.854-0.759,1.383c-0.179,0.529-0.286,1.102-0.322,1.716H137.248z
		 M133.456,21.587c0.972,0,1.808,0.141,2.509,0.423c0.701,0.281,1.279,0.679,1.731,1.191c0.452,0.513,0.791,1.119,1.013,1.819
		c0.22,0.701,0.332,1.469,0.332,2.307c0,0.718-0.167,1.19-0.498,1.423c-0.335,0.229-0.741,0.345-1.22,0.345h-7.84
		c0,0.884,0.113,1.635,0.335,2.256c0.223,0.62,0.527,1.122,0.911,1.503c0.388,0.382,0.841,0.66,1.363,0.829
		c0.522,0.169,1.086,0.253,1.685,0.253c0.565,0,1.119-0.067,1.656-0.204c0.542-0.137,0.998-0.308,1.377-0.512
		c0.207-0.104,0.352-0.068,0.437,0.102l0.46,0.903c0.103,0.208,0.062,0.356-0.128,0.441c-0.598,0.364-1.237,0.612-1.92,0.741
		c-0.686,0.13-1.351,0.195-2,0.195c-1.88,0-3.356-0.551-4.433-1.653s-1.615-2.865-1.615-5.29c0-1.144,0.147-2.156,0.437-3.037
		c0.29-0.879,0.694-1.618,1.215-2.217c0.522-0.598,1.138-1.049,1.846-1.358C131.822,21.741,132.601,21.587,133.456,21.587"/>
	<path fill="#B2B2B2" d="M143.217,28.787c0,0.974,0.101,1.793,0.308,2.46c0.204,0.666,0.493,1.204,0.857,1.614
		c0.367,0.41,0.814,0.7,1.334,0.871c0.521,0.171,1.097,0.257,1.728,0.257c0.224,0,0.474-0.014,0.757-0.04
		c0.282-0.025,0.567-0.059,0.857-0.103c0.291-0.042,0.576-0.097,0.857-0.167c0.286-0.068,0.535-0.145,0.759-0.23v-9.71
		c-0.703-0.24-1.303-0.389-1.808-0.45c-0.503-0.059-0.953-0.089-1.344-0.089c-0.631,0-1.208,0.111-1.731,0.334
		c-0.521,0.221-0.973,0.563-1.356,1.024c-0.384,0.461-0.684,1.043-0.896,1.743C143.323,27.002,143.217,27.83,143.217,28.787
		 M141.269,28.787c0-0.957,0.119-1.87,0.36-2.742c0.239-0.87,0.611-1.634,1.113-2.293c0.505-0.657,1.142-1.181,1.911-1.575
		c0.768-0.393,1.681-0.589,2.739-0.589c0.446,0,0.953,0.031,1.524,0.09c0.574,0.06,1.16,0.184,1.757,0.371v-5.125
		c0-0.136,0.023-0.226,0.074-0.269c0.051-0.042,0.144-0.063,0.279-0.063h1.187c0.117,0,0.202,0.021,0.252,0.063
		c0.05,0.042,0.077,0.133,0.077,0.269v17.372c0,0.206-0.087,0.343-0.257,0.41c-0.868,0.376-1.758,0.619-2.672,0.73
		c-0.909,0.112-1.75,0.167-2.518,0.167c-1.038,0-1.93-0.159-2.67-0.474c-0.743-0.315-1.348-0.769-1.817-1.358
		c-0.469-0.589-0.808-1.302-1.019-2.138C141.376,30.793,141.269,29.846,141.269,28.787"/>
	<path fill="#B2B2B2" d="M158.308,34.988c0,0.136-0.026,0.227-0.077,0.269c-0.051,0.042-0.144,0.063-0.281,0.063h-1.154
		c-0.119,0-0.21-0.021-0.269-0.063c-0.061-0.042-0.089-0.133-0.089-0.269V22.202c0-0.136,0.028-0.226,0.089-0.269
		c0.059-0.042,0.15-0.064,0.269-0.064h1.154c0.137,0,0.229,0.022,0.281,0.064c0.05,0.043,0.077,0.133,0.077,0.269V34.988z
		 M158.668,18.18c0,0.359-0.125,0.657-0.374,0.896c-0.248,0.24-0.551,0.359-0.909,0.359c-0.342,0-0.64-0.12-0.895-0.359
		c-0.258-0.239-0.386-0.537-0.386-0.896c0-0.358,0.128-0.667,0.386-0.922c0.255-0.257,0.553-0.384,0.895-0.384
		c0.358,0,0.662,0.127,0.909,0.384C158.543,17.513,158.668,17.821,158.668,18.18"/>
	<path fill="#B2B2B2" d="M170.529,28.505h-3.305c-0.307,0-0.676,0.025-1.102,0.077c-0.428,0.052-0.833,0.176-1.216,0.375
		c-0.385,0.196-0.71,0.488-0.975,0.875c-0.264,0.386-0.396,0.913-0.396,1.582c0,0.516,0.098,0.944,0.294,1.288
		c0.197,0.344,0.461,0.617,0.795,0.822c0.332,0.207,0.712,0.35,1.139,0.426c0.428,0.077,0.871,0.115,1.333,0.115
		c0.153,0,0.361-0.009,0.628-0.025c0.263-0.018,0.557-0.043,0.884-0.078c0.323-0.034,0.654-0.089,0.986-0.167
		c0.332-0.076,0.644-0.166,0.935-0.271V28.505z M172.453,34.141c0,0.309-0.122,0.514-0.36,0.616
		c-0.769,0.324-1.589,0.548-2.462,0.667c-0.87,0.119-1.708,0.179-2.51,0.179c-1.092,0-1.99-0.12-2.689-0.36
		c-0.7-0.24-1.257-0.551-1.667-0.938c-0.409-0.385-0.694-0.831-0.856-1.336c-0.165-0.505-0.244-1.032-0.244-1.581
		c0-0.634,0.11-1.228,0.332-1.785c0.223-0.556,0.562-1.04,1.013-1.452c0.452-0.411,1.022-0.732,1.705-0.964
		c0.682-0.23,1.496-0.347,2.435-0.347h3.407v-0.681c0-0.422-0.044-0.813-0.128-1.174c-0.086-0.362-0.248-0.671-0.488-0.922
		c-0.24-0.253-0.571-0.45-0.998-0.594c-0.428-0.143-0.982-0.214-1.665-0.214c-0.564,0-1.183,0.055-1.859,0.167
		c-0.674,0.111-1.252,0.242-1.73,0.396c-0.118,0.035-0.211,0.048-0.281,0.039c-0.069-0.009-0.12-0.074-0.152-0.193l-0.257-0.93
		c-0.052-0.189,0.018-0.32,0.206-0.39c0.306-0.122,0.64-0.229,0.999-0.325c0.358-0.094,0.727-0.177,1.114-0.247
		c0.384-0.069,0.773-0.117,1.165-0.142c0.393-0.027,0.76-0.04,1.101-0.04c1.657,0,2.883,0.367,3.678,1.102
		c0.792,0.736,1.193,1.811,1.193,3.229V34.141z"/>
	<path fill="#B2B2B2" d="M34.78,44.076c0.282,0,0.518,0.04,0.708,0.121c0.192,0.081,0.348,0.195,0.467,0.345
		c0.119,0.149,0.207,0.328,0.259,0.535c0.053,0.207,0.079,0.435,0.079,0.684v1.918c0,0.041-0.008,0.067-0.023,0.08
		c-0.018,0.011-0.044,0.016-0.081,0.016h-0.384c-0.038,0-0.065-0.005-0.085-0.016c-0.019-0.012-0.028-0.039-0.028-0.08v-1.823
		c0-0.427-0.073-0.741-0.224-0.942c-0.149-0.2-0.408-0.299-0.776-0.299c-0.068,0-0.144,0.005-0.224,0.017
		c-0.081,0.012-0.162,0.028-0.246,0.048c-0.083,0.022-0.162,0.046-0.238,0.073c-0.075,0.028-0.144,0.058-0.203,0.09
		c0.065,0.133,0.107,0.279,0.128,0.438c0.02,0.159,0.031,0.341,0.031,0.548v1.851c0,0.041-0.01,0.067-0.028,0.08
		c-0.018,0.011-0.048,0.016-0.09,0.016h-0.372c-0.038,0-0.065-0.005-0.084-0.016c-0.018-0.012-0.028-0.039-0.028-0.08v-1.855
		c0-0.19-0.014-0.358-0.044-0.508c-0.03-0.149-0.083-0.276-0.162-0.379c-0.078-0.104-0.185-0.183-0.321-0.238
		c-0.135-0.055-0.311-0.083-0.528-0.083c-0.06,0-0.152,0.002-0.274,0.01c-0.125,0.006-0.242,0.021-0.353,0.045v3.009
		c0,0.041-0.008,0.067-0.025,0.08c-0.016,0.011-0.045,0.016-0.086,0.016h-0.373c-0.037,0-0.065-0.005-0.086-0.016
		c-0.02-0.012-0.031-0.039-0.031-0.08v-3.002c0-0.138,0.03-0.246,0.09-0.324c0.06-0.079,0.143-0.138,0.249-0.179
		c0.106-0.042,0.234-0.068,0.381-0.08c0.147-0.011,0.308-0.017,0.483-0.017c0.282,0,0.515,0.03,0.701,0.09
		c0.188,0.06,0.354,0.157,0.501,0.289h0.007c0.17-0.119,0.368-0.212,0.591-0.28C34.281,44.109,34.522,44.076,34.78,44.076"/>
	<path fill="#B2B2B2" d="M39.496,45.656c0-0.142-0.014-0.279-0.041-0.41c-0.028-0.131-0.078-0.247-0.148-0.345
		c-0.073-0.1-0.17-0.177-0.291-0.235c-0.123-0.057-0.276-0.086-0.462-0.086c-0.152,0-0.287,0.03-0.405,0.09
		c-0.118,0.06-0.217,0.139-0.297,0.238c-0.081,0.098-0.145,0.211-0.19,0.341c-0.047,0.129-0.074,0.265-0.084,0.407H39.496z
		 M38.55,44.076c0.262,0,0.49,0.037,0.68,0.11c0.191,0.074,0.347,0.179,0.469,0.313c0.122,0.137,0.213,0.297,0.273,0.484
		c0.06,0.187,0.09,0.393,0.09,0.617c0,0.11-0.014,0.2-0.042,0.27c-0.027,0.069-0.064,0.124-0.113,0.162
		c-0.048,0.04-0.103,0.067-0.165,0.083c-0.062,0.016-0.128,0.024-0.197,0.024h-1.988c0,0.215,0.03,0.4,0.09,0.552
		c0.061,0.152,0.139,0.276,0.239,0.369c0.1,0.094,0.215,0.163,0.346,0.205c0.132,0.041,0.274,0.061,0.427,0.061
		c0.152,0,0.302-0.019,0.449-0.059c0.148-0.038,0.271-0.083,0.368-0.133c0.055-0.033,0.1-0.021,0.131,0.034l0.145,0.29
		c0.031,0.064,0.018,0.11-0.042,0.138c-0.166,0.102-0.344,0.17-0.535,0.204c-0.19,0.034-0.378,0.053-0.562,0.053
		c-0.257,0-0.488-0.038-0.693-0.112c-0.204-0.073-0.378-0.186-0.521-0.337c-0.144-0.152-0.253-0.345-0.328-0.58
		c-0.077-0.234-0.114-0.516-0.114-0.843c0-0.303,0.04-0.573,0.12-0.81c0.082-0.237,0.193-0.436,0.336-0.597
		c0.142-0.162,0.311-0.284,0.503-0.369C38.108,44.118,38.32,44.076,38.55,44.076"/>
	<path fill="#B2B2B2" d="M44.435,44.076c0.282,0,0.518,0.04,0.708,0.121c0.192,0.081,0.348,0.195,0.468,0.345
		c0.119,0.149,0.206,0.328,0.259,0.535c0.052,0.207,0.079,0.435,0.079,0.684v1.918c0,0.041-0.009,0.067-0.024,0.08
		c-0.018,0.011-0.044,0.016-0.081,0.016H45.46c-0.038,0-0.065-0.005-0.084-0.016c-0.019-0.012-0.028-0.039-0.028-0.08v-1.823
		c0-0.427-0.074-0.741-0.224-0.942c-0.15-0.2-0.408-0.299-0.777-0.299c-0.068,0-0.144,0.005-0.224,0.017
		c-0.08,0.012-0.162,0.028-0.246,0.048c-0.083,0.022-0.161,0.046-0.238,0.073c-0.076,0.028-0.144,0.058-0.203,0.09
		c0.064,0.133,0.107,0.279,0.127,0.438c0.021,0.159,0.032,0.341,0.032,0.548v1.851c0,0.041-0.01,0.067-0.027,0.08
		c-0.019,0.011-0.048,0.016-0.09,0.016h-0.372c-0.038,0-0.064-0.005-0.084-0.016c-0.018-0.012-0.028-0.039-0.028-0.08v-1.855
		c0-0.19-0.014-0.358-0.044-0.508c-0.03-0.149-0.083-0.276-0.163-0.379c-0.078-0.104-0.185-0.183-0.321-0.238
		c-0.135-0.055-0.312-0.083-0.528-0.083c-0.06,0-0.152,0.002-0.275,0.01c-0.125,0.006-0.241,0.021-0.352,0.045v3.009
		c0,0.041-0.009,0.067-0.026,0.08c-0.015,0.011-0.044,0.016-0.085,0.016h-0.373c-0.037,0-0.065-0.005-0.085-0.016
		c-0.021-0.012-0.032-0.039-0.032-0.08v-3.002c0-0.138,0.03-0.246,0.09-0.324s0.142-0.138,0.248-0.179
		c0.106-0.042,0.234-0.068,0.381-0.08s0.308-0.017,0.483-0.017c0.282,0,0.515,0.03,0.701,0.09c0.187,0.06,0.354,0.157,0.501,0.289
		h0.007c0.17-0.119,0.369-0.212,0.591-0.28C43.936,44.109,44.177,44.076,44.435,44.076"/>
	<path fill="#B2B2B2" d="M47.349,47.222c0.134,0.046,0.274,0.077,0.421,0.094c0.147,0.015,0.276,0.024,0.387,0.024
		c0.157,0,0.302-0.026,0.435-0.079c0.134-0.054,0.25-0.136,0.346-0.246c0.096-0.109,0.171-0.251,0.224-0.425
		c0.052-0.172,0.079-0.383,0.079-0.631c0-0.456-0.09-0.796-0.27-1.021c-0.179-0.227-0.427-0.339-0.744-0.339
		c-0.087,0-0.212,0.009-0.374,0.025c-0.16,0.017-0.329,0.053-0.503,0.113V47.222z M49.854,45.917c0,0.281-0.034,0.541-0.099,0.777
		c-0.067,0.237-0.17,0.441-0.308,0.611c-0.138,0.169-0.312,0.304-0.524,0.401c-0.212,0.096-0.462,0.145-0.751,0.145
		c-0.217,0-0.442-0.018-0.677-0.052s-0.456-0.095-0.663-0.182c-0.055-0.02-0.083-0.06-0.083-0.125v-4.659
		c0-0.045,0.009-0.074,0.027-0.086s0.045-0.017,0.083-0.017h0.386c0.037,0,0.063,0.005,0.079,0.017
		c0.017,0.012,0.024,0.041,0.024,0.086v1.388c0.147-0.046,0.31-0.082,0.487-0.106c0.177-0.027,0.331-0.039,0.458-0.039
		c0.272,0,0.505,0.045,0.701,0.138s0.357,0.219,0.486,0.379c0.129,0.162,0.223,0.356,0.283,0.583
		C49.824,45.405,49.854,45.651,49.854,45.917"/>
	<path fill="#B2B2B2" d="M52.918,45.656c0-0.142-0.013-0.279-0.041-0.41c-0.028-0.131-0.078-0.247-0.148-0.345
		c-0.073-0.1-0.17-0.177-0.291-0.235c-0.123-0.057-0.276-0.086-0.461-0.086c-0.153,0-0.287,0.03-0.405,0.09
		c-0.118,0.06-0.217,0.139-0.298,0.238c-0.08,0.098-0.144,0.211-0.19,0.341c-0.047,0.129-0.074,0.265-0.084,0.407H52.918z
		 M51.973,44.076c0.262,0,0.49,0.037,0.68,0.11C52.845,44.26,53,44.365,53.122,44.5c0.123,0.137,0.213,0.297,0.273,0.484
		c0.06,0.187,0.089,0.393,0.089,0.617c0,0.11-0.014,0.2-0.042,0.27c-0.027,0.069-0.064,0.124-0.113,0.162
		c-0.048,0.04-0.103,0.067-0.165,0.083c-0.063,0.016-0.128,0.024-0.197,0.024h-1.988c0,0.215,0.03,0.4,0.09,0.552
		c0.06,0.152,0.139,0.276,0.239,0.369c0.1,0.094,0.215,0.163,0.346,0.205c0.133,0.041,0.274,0.061,0.427,0.061
		c0.152,0,0.301-0.019,0.449-0.059c0.148-0.038,0.271-0.083,0.368-0.133c0.055-0.033,0.099-0.021,0.13,0.034l0.146,0.29
		c0.031,0.064,0.018,0.11-0.042,0.138c-0.166,0.102-0.344,0.17-0.536,0.204c-0.19,0.034-0.378,0.053-0.562,0.053
		c-0.257,0-0.488-0.038-0.692-0.112c-0.205-0.073-0.378-0.186-0.522-0.337c-0.143-0.152-0.252-0.345-0.327-0.58
		c-0.077-0.234-0.115-0.516-0.115-0.843c0-0.303,0.041-0.573,0.12-0.81c0.082-0.237,0.193-0.436,0.335-0.597
		c0.143-0.162,0.31-0.284,0.504-0.369C51.531,44.118,51.743,44.076,51.973,44.076"/>
	<path fill="#B2B2B2" d="M56.307,44.994c-0.022,0.032-0.042,0.044-0.059,0.037c-0.016-0.006-0.037-0.016-0.059-0.031
		c-0.129-0.123-0.276-0.219-0.441-0.286c-0.165-0.067-0.344-0.1-0.539-0.1c-0.128,0-0.264,0.013-0.407,0.041v3.017
		c0,0.044-0.009,0.073-0.028,0.085c-0.017,0.011-0.045,0.016-0.083,0.016h-0.384c-0.038,0-0.064-0.005-0.08-0.016
		c-0.017-0.012-0.024-0.041-0.024-0.085v-3.038c0-0.166,0.028-0.287,0.083-0.366c0.056-0.078,0.172-0.13,0.349-0.158
		c0.094-0.01,0.184-0.018,0.271-0.024c0.088-0.007,0.175-0.011,0.263-0.011c0.271,0,0.521,0.038,0.751,0.11
		c0.23,0.075,0.442,0.196,0.637,0.367c0.035,0.036,0.037,0.073,0.005,0.11L56.307,44.994z"/>
	<path fill="#B2B2B2" d="M61.151,45.967c0-0.18-0.014-0.354-0.041-0.522c-0.028-0.167-0.078-0.314-0.152-0.441
		c-0.073-0.125-0.175-0.229-0.304-0.307c-0.127-0.079-0.294-0.118-0.497-0.118c-0.175,0-0.327,0.038-0.455,0.111
		c-0.129,0.073-0.234,0.172-0.317,0.296c-0.084,0.125-0.146,0.269-0.187,0.435c-0.042,0.166-0.062,0.341-0.062,0.524
		c0,0.206,0.016,0.397,0.048,0.569s0.087,0.319,0.167,0.442c0.078,0.123,0.181,0.218,0.307,0.286
		c0.126,0.069,0.287,0.104,0.48,0.104c0.192,0,0.355-0.04,0.486-0.117c0.131-0.079,0.235-0.182,0.315-0.312
		c0.078-0.128,0.132-0.275,0.165-0.442C61.135,46.312,61.151,46.142,61.151,45.967 M61.751,45.946c0,0.616-0.138,1.088-0.417,1.414
		c-0.277,0.327-0.681,0.491-1.208,0.491c-0.519,0-0.914-0.159-1.183-0.477c-0.271-0.317-0.408-0.787-0.408-1.407
		c0-0.304,0.042-0.574,0.121-0.809c0.082-0.234,0.193-0.432,0.338-0.594c0.145-0.16,0.315-0.282,0.512-0.365
		c0.198-0.083,0.41-0.125,0.641-0.125c0.523,0,0.921,0.165,1.194,0.497C61.616,44.904,61.751,45.361,61.751,45.946"/>
	<path fill="#B2B2B2" d="M64.339,43.2c-0.013,0.05-0.048,0.068-0.103,0.055c-0.093-0.02-0.18-0.031-0.263-0.038
		c-0.083-0.008-0.157-0.012-0.221-0.012c-0.197,0-0.332,0.044-0.4,0.128c-0.069,0.085-0.104,0.194-0.104,0.328v0.489h0.876
		c0.046,0,0.075,0.009,0.086,0.024c0.012,0.017,0.018,0.042,0.018,0.08v0.275c0,0.028-0.006,0.052-0.018,0.069
		c-0.012,0.019-0.04,0.028-0.086,0.028h-0.876v3.051c0,0.042-0.008,0.067-0.028,0.08c-0.018,0.011-0.045,0.016-0.082,0.016h-0.38
		c-0.042,0-0.071-0.005-0.086-0.016c-0.017-0.012-0.023-0.038-0.023-0.08v-3.051h-0.519c-0.045,0-0.074-0.009-0.086-0.028
		c-0.011-0.018-0.017-0.042-0.017-0.069v-0.158c0-0.037,0.006-0.063,0.021-0.08c0.014-0.016,0.042-0.029,0.082-0.037
		c0.009,0,0.041-0.006,0.094-0.018c0.052-0.011,0.107-0.022,0.165-0.034c0.058-0.012,0.114-0.022,0.167-0.031
		c0.052-0.009,0.084-0.014,0.093-0.014v-0.481c0-0.306,0.078-0.548,0.234-0.727c0.156-0.179,0.414-0.269,0.771-0.269
		c0.08,0,0.182,0.006,0.308,0.018c0.127,0.01,0.256,0.037,0.39,0.078c0.036,0.009,0.056,0.022,0.059,0.042
		c0.002,0.018,0.001,0.04-0.004,0.067L64.339,43.2z"/>
	<path fill="#F9B122" d="M70.425,43.793c0-0.078-0.011-0.164-0.033-0.257c-0.024-0.093-0.066-0.181-0.131-0.262
		c-0.065-0.081-0.152-0.148-0.261-0.202c-0.109-0.054-0.25-0.08-0.418-0.08h-1.097v1.601h1.105c0.287,0,0.498-0.076,0.632-0.231
		C70.358,44.208,70.425,44.019,70.425,43.793 M68.485,47.597c0,0.08-0.012,0.129-0.037,0.148c-0.026,0.021-0.082,0.029-0.165,0.029
		h-0.886c-0.067,0-0.117-0.012-0.147-0.038c-0.031-0.025-0.046-0.071-0.046-0.14v-5.22c0-0.158,0.034-0.284,0.101-0.376
		c0.067-0.092,0.204-0.139,0.405-0.139h2.066c0.304,0,0.579,0.047,0.824,0.139c0.243,0.092,0.451,0.221,0.623,0.384
		c0.172,0.164,0.303,0.357,0.393,0.583c0.09,0.225,0.134,0.472,0.134,0.741c0,0.146-0.022,0.328-0.066,0.544
		c-0.046,0.216-0.142,0.427-0.291,0.632c-0.149,0.206-0.366,0.381-0.649,0.527c-0.285,0.147-0.663,0.22-1.135,0.22h-1.122V47.597z"
		/>
	<path fill="#F9B122" d="M74.213,44.249c-0.23,0-0.419,0.081-0.565,0.245c-0.146,0.162-0.23,0.37-0.252,0.623h1.577
		c0-0.122-0.013-0.238-0.038-0.346c-0.025-0.106-0.066-0.197-0.123-0.273c-0.056-0.077-0.131-0.138-0.227-0.181
		C74.488,44.271,74.365,44.249,74.213,44.249 M74.188,43.236c0.657,0,1.15,0.165,1.479,0.495c0.329,0.327,0.494,0.798,0.494,1.412
		c0,0.292-0.057,0.493-0.169,0.599c-0.112,0.107-0.268,0.161-0.464,0.161h-2.16c0.006,0.18,0.035,0.329,0.088,0.447
		c0.055,0.118,0.126,0.213,0.215,0.287c0.091,0.072,0.195,0.124,0.316,0.152s0.252,0.042,0.393,0.042c0.163,0,0.329-0.02,0.498-0.06
		c0.168-0.038,0.326-0.09,0.473-0.151c0.068-0.022,0.114-0.03,0.139-0.021c0.025,0.009,0.05,0.035,0.072,0.08l0.27,0.608
		c0.022,0.051,0.027,0.09,0.012,0.119c-0.014,0.028-0.043,0.056-0.089,0.084c-0.208,0.134-0.449,0.232-0.725,0.291
		c-0.276,0.059-0.532,0.088-0.768,0.088c-0.737,0-1.282-0.183-1.636-0.548c-0.354-0.365-0.531-0.944-0.531-1.737
		c0-0.373,0.049-0.701,0.147-0.992c0.098-0.29,0.239-0.535,0.42-0.739c0.184-0.202,0.403-0.354,0.659-0.459
		C73.579,43.289,73.867,43.236,74.188,43.236"/>
	<path fill="#F9B122" d="M79.466,45.767h-0.664c-0.079,0-0.165,0.005-0.255,0.018c-0.089,0.01-0.173,0.039-0.248,0.08
		c-0.077,0.043-0.139,0.104-0.19,0.182c-0.05,0.078-0.076,0.186-0.076,0.32c0,0.197,0.066,0.335,0.198,0.414
		c0.132,0.078,0.312,0.117,0.537,0.117c0.034,0,0.078-0.001,0.133-0.004c0.058-0.003,0.117-0.009,0.182-0.016
		c0.064-0.009,0.131-0.021,0.199-0.034c0.067-0.015,0.129-0.033,0.184-0.055V45.767z M80.691,47.227c0,0.072-0.011,0.134-0.03,0.186
		c-0.02,0.051-0.067,0.098-0.146,0.144c-0.129,0.062-0.268,0.112-0.417,0.151c-0.148,0.04-0.301,0.07-0.456,0.093
		c-0.153,0.023-0.31,0.039-0.465,0.052c-0.158,0.01-0.307,0.016-0.447,0.016c-0.381,0-0.697-0.037-0.948-0.109
		c-0.249-0.074-0.449-0.173-0.601-0.3c-0.152-0.127-0.258-0.276-0.32-0.447c-0.062-0.171-0.092-0.355-0.092-0.552
		c0-0.22,0.037-0.421,0.109-0.604c0.074-0.182,0.182-0.341,0.329-0.476c0.146-0.136,0.331-0.241,0.552-0.318
		c0.223-0.075,0.486-0.113,0.788-0.113h0.929v-0.134c0-0.08-0.01-0.155-0.025-0.228c-0.017-0.073-0.052-0.137-0.105-0.189
		c-0.054-0.053-0.128-0.098-0.222-0.132c-0.097-0.032-0.223-0.05-0.381-0.05c-0.083,0-0.18,0.004-0.287,0.014
		c-0.107,0.007-0.214,0.02-0.321,0.034c-0.107,0.014-0.21,0.03-0.312,0.05c-0.101,0.02-0.191,0.041-0.27,0.063
		c-0.072,0.017-0.124,0.017-0.152,0c-0.028-0.018-0.047-0.053-0.059-0.111l-0.134-0.589c-0.016-0.062-0.018-0.105-0.004-0.131
		c0.015-0.025,0.044-0.046,0.088-0.063c0.254-0.09,0.52-0.155,0.798-0.194c0.279-0.04,0.555-0.059,0.831-0.059
		c0.611,0,1.061,0.13,1.345,0.391c0.285,0.261,0.427,0.648,0.427,1.161V47.227z"/>
	<path fill="#F9B122" d="M82.926,47.749c-0.023,0.017-0.073,0.025-0.152,0.025h-0.86c-0.062,0-0.106-0.008-0.135-0.029
		c-0.028-0.019-0.042-0.06-0.042-0.123v-3.593c0-0.219,0.039-0.386,0.114-0.502c0.077-0.115,0.237-0.192,0.486-0.232
		c0.1-0.01,0.206-0.021,0.312-0.029c0.107-0.008,0.217-0.012,0.329-0.012c0.37,0,0.738,0.047,1.102,0.144
		c0.361,0.096,0.683,0.248,0.965,0.454c0.045,0.034,0.066,0.067,0.063,0.098s-0.013,0.064-0.028,0.098l-0.44,0.699
		c-0.033,0.057-0.065,0.082-0.093,0.076c-0.028-0.005-0.074-0.029-0.135-0.067c-0.158-0.118-0.327-0.215-0.506-0.291
		c-0.18-0.077-0.383-0.117-0.607-0.123c-0.118,0-0.231,0.009-0.337,0.025v3.255C82.96,47.69,82.948,47.733,82.926,47.749"/>
	<path fill="#F9B122" d="M88.839,46.509c0,0.456-0.162,0.795-0.486,1.021c-0.324,0.226-0.746,0.338-1.269,0.338
		c-0.293,0-0.6-0.033-0.924-0.098c-0.324-0.064-0.608-0.17-0.856-0.316c-0.045-0.028-0.073-0.058-0.08-0.089
		c-0.009-0.031,0.001-0.074,0.03-0.13l0.243-0.583c0.028-0.062,0.058-0.099,0.088-0.114c0.031-0.013,0.079-0.007,0.14,0.021
		c0.089,0.04,0.19,0.078,0.303,0.115c0.113,0.036,0.23,0.067,0.35,0.095c0.122,0.028,0.237,0.052,0.351,0.068
		c0.113,0.016,0.213,0.025,0.303,0.025c0.203,0,0.345-0.036,0.427-0.105c0.082-0.071,0.123-0.159,0.123-0.266
		c0-0.112-0.058-0.208-0.174-0.287c-0.116-0.08-0.313-0.172-0.593-0.279c-0.226-0.084-0.424-0.171-0.595-0.262
		c-0.171-0.09-0.315-0.187-0.434-0.291c-0.119-0.105-0.208-0.223-0.27-0.354c-0.062-0.132-0.093-0.286-0.093-0.46
		c0-0.185,0.034-0.357,0.101-0.519c0.067-0.161,0.169-0.299,0.303-0.418c0.137-0.118,0.306-0.212,0.512-0.281
		c0.205-0.071,0.449-0.106,0.729-0.106c0.252,0,0.511,0.025,0.772,0.072c0.261,0.047,0.499,0.12,0.713,0.215
		c0.061,0.028,0.094,0.058,0.1,0.089c0.006,0.031-0.002,0.08-0.025,0.148l-0.21,0.538c-0.022,0.062-0.047,0.098-0.076,0.106
		c-0.028,0.008-0.074,0.001-0.135-0.022c-0.208-0.061-0.399-0.109-0.573-0.143c-0.174-0.034-0.354-0.05-0.541-0.05
		c-0.152,0-0.261,0.035-0.329,0.104c-0.066,0.071-0.1,0.144-0.1,0.216c0,0.112,0.051,0.206,0.154,0.279
		c0.105,0.072,0.286,0.157,0.545,0.253c0.203,0.078,0.394,0.159,0.573,0.24c0.18,0.082,0.336,0.177,0.469,0.287
		c0.131,0.109,0.237,0.241,0.315,0.393C88.799,46.113,88.839,46.295,88.839,46.509"/>
	<path fill="#F9B122" d="M95.722,42.014c0-0.062,0.013-0.102,0.037-0.118c0.026-0.017,0.066-0.025,0.124-0.025h0.457
		c0.061,0,0.103,0.008,0.124,0.025c0.024,0.016,0.036,0.056,0.036,0.118v5.618c0,0.062-0.012,0.102-0.036,0.118
		c-0.021,0.017-0.063,0.025-0.124,0.025h-0.457c-0.058,0-0.097-0.009-0.124-0.025c-0.023-0.016-0.037-0.056-0.037-0.118v-2.632
		h-2.97v2.632c0,0.062-0.01,0.102-0.033,0.118c-0.024,0.017-0.066,0.025-0.129,0.025h-0.469c-0.05,0-0.089-0.009-0.119-0.025
		c-0.027-0.016-0.042-0.056-0.042-0.118v-5.618c0-0.062,0.015-0.102,0.042-0.118c0.029-0.017,0.069-0.025,0.119-0.025h0.469
		c0.063,0,0.105,0.008,0.129,0.025c0.023,0.016,0.033,0.056,0.033,0.118v2.311h2.97V42.014z"/>
	<path fill="#F9B122" d="M100.495,45.185c0-0.174-0.017-0.341-0.05-0.502c-0.035-0.16-0.097-0.3-0.182-0.42
		c-0.09-0.121-0.208-0.217-0.356-0.288c-0.15-0.069-0.336-0.104-0.563-0.104c-0.185,0-0.352,0.037-0.494,0.109
		c-0.145,0.074-0.267,0.17-0.365,0.292c-0.098,0.121-0.176,0.259-0.233,0.417c-0.055,0.158-0.088,0.324-0.1,0.498H100.495z
		 M99.341,43.254c0.32,0,0.596,0.044,0.827,0.134c0.234,0.09,0.426,0.219,0.576,0.384c0.149,0.167,0.259,0.363,0.333,0.59
		c0.074,0.228,0.108,0.48,0.108,0.755c0,0.136-0.017,0.245-0.05,0.329c-0.032,0.084-0.08,0.15-0.14,0.199
		c-0.059,0.047-0.123,0.082-0.201,0.1c-0.076,0.02-0.157,0.03-0.24,0.03h-2.43c0,0.265,0.038,0.49,0.109,0.675
		c0.074,0.186,0.17,0.337,0.292,0.452c0.122,0.115,0.263,0.198,0.425,0.248c0.159,0.052,0.333,0.077,0.519,0.077
		c0.188,0,0.371-0.024,0.553-0.073c0.18-0.047,0.328-0.102,0.447-0.164c0.067-0.04,0.121-0.026,0.162,0.042l0.178,0.354
		c0.038,0.08,0.021,0.136-0.053,0.169c-0.201,0.123-0.418,0.207-0.652,0.248c-0.232,0.043-0.465,0.064-0.689,0.064
		c-0.313,0-0.598-0.045-0.846-0.135c-0.251-0.09-0.463-0.229-0.638-0.414c-0.174-0.186-0.305-0.422-0.4-0.708
		c-0.091-0.287-0.137-0.63-0.137-1.028c0-0.373,0.049-0.702,0.146-0.992c0.098-0.29,0.235-0.533,0.409-0.729
		c0.175-0.197,0.382-0.347,0.618-0.451C98.8,43.306,99.058,43.254,99.341,43.254"/>
	<path fill="#F9B122" d="M104.67,45.598h-0.977c-0.104,0-0.221,0.008-0.35,0.021c-0.133,0.015-0.259,0.052-0.377,0.111
		c-0.118,0.06-0.216,0.146-0.3,0.261c-0.082,0.115-0.122,0.274-0.122,0.477c0,0.151,0.028,0.279,0.085,0.384
		c0.055,0.104,0.13,0.185,0.228,0.244c0.095,0.059,0.207,0.102,0.336,0.127c0.131,0.025,0.27,0.039,0.423,0.039
		c0.05,0,0.117-0.002,0.198-0.004c0.081-0.003,0.172-0.012,0.271-0.025c0.096-0.015,0.199-0.031,0.298-0.052
		c0.101-0.019,0.197-0.046,0.287-0.08V45.598z M105.42,47.361c0,0.113-0.041,0.187-0.126,0.22c-0.25,0.112-0.527,0.188-0.821,0.227
		c-0.297,0.04-0.578,0.059-0.846,0.059c-0.368,0-0.666-0.039-0.899-0.114c-0.233-0.076-0.418-0.179-0.554-0.31
		c-0.132-0.129-0.229-0.278-0.282-0.447c-0.053-0.171-0.078-0.349-0.078-0.534c0-0.192,0.031-0.379,0.095-0.562
		c0.066-0.184,0.17-0.344,0.318-0.483c0.144-0.138,0.334-0.249,0.568-0.333c0.234-0.086,0.518-0.127,0.854-0.127h1.032v-0.185
		c0-0.133-0.014-0.253-0.039-0.36c-0.025-0.105-0.075-0.198-0.146-0.275c-0.075-0.079-0.177-0.139-0.309-0.18
		c-0.133-0.043-0.303-0.063-0.511-0.063c-0.197,0-0.405,0.016-0.626,0.05c-0.226,0.034-0.407,0.074-0.544,0.119
		c-0.046,0.017-0.084,0.023-0.11,0.017c-0.03-0.005-0.05-0.031-0.059-0.077l-0.104-0.362c-0.008-0.028-0.01-0.056-0.005-0.081
		c0.009-0.025,0.038-0.046,0.082-0.063c0.214-0.089,0.458-0.153,0.736-0.189c0.274-0.037,0.528-0.055,0.759-0.055
		c0.561,0,0.971,0.125,1.231,0.375c0.257,0.251,0.386,0.615,0.386,1.093V47.361z"/>
	<path fill="#F9B122" d="M107.974,47.706c-0.01,0.019-0.037,0.04-0.083,0.062c-0.095,0.045-0.202,0.073-0.324,0.084
		c-0.12,0.01-0.226,0.016-0.317,0.016c-0.283,0-0.483-0.069-0.596-0.207c-0.114-0.137-0.171-0.35-0.171-0.636v-5.29
		c0-0.056,0.011-0.092,0.035-0.105c0.021-0.014,0.055-0.021,0.1-0.021h0.467c0.049,0,0.085,0.006,0.102,0.021
		c0.021,0.014,0.032,0.049,0.032,0.105v5.086c0,0.163,0.019,0.27,0.063,0.325c0.042,0.054,0.12,0.081,0.232,0.081
		c0.056,0,0.109-0.001,0.159-0.005c0.051-0.003,0.097-0.007,0.145-0.013c0.038-0.005,0.065-0.003,0.083,0.004
		c0.018,0.009,0.03,0.033,0.035,0.071l0.042,0.325C107.982,47.654,107.98,47.685,107.974,47.706"/>
	<path fill="#F9B122" d="M108.295,43.938c-0.049,0-0.08-0.012-0.095-0.034c-0.015-0.023-0.023-0.051-0.023-0.085v-0.249
		c0-0.073,0.042-0.123,0.118-0.146l0.66-0.128l0.136-0.81c0.011-0.056,0.025-0.093,0.05-0.109c0.024-0.018,0.055-0.037,0.1-0.059
		l0.28-0.102c0.039-0.012,0.068-0.01,0.092,0.004c0.023,0.013,0.032,0.049,0.032,0.105v1.021h0.939c0.049,0,0.081,0.01,0.095,0.034
		c0.016,0.023,0.022,0.055,0.022,0.094v0.343c0,0.045-0.006,0.076-0.022,0.093c-0.014,0.018-0.046,0.027-0.095,0.027h-0.939v2.733
		c0,0.197,0.047,0.338,0.132,0.425c0.088,0.087,0.232,0.132,0.436,0.132c0.074,0,0.175-0.008,0.308-0.021
		c0.13-0.015,0.244-0.028,0.34-0.039c0.051-0.011,0.083-0.01,0.097,0.004c0.015,0.014,0.025,0.035,0.032,0.063l0.074,0.375
		c0.004,0.033,0.006,0.061,0.003,0.083c-0.001,0.022-0.024,0.042-0.068,0.058c-0.166,0.05-0.337,0.082-0.517,0.096
		c-0.18,0.013-0.308,0.021-0.387,0.021c-0.44,0-0.745-0.095-0.921-0.281c-0.174-0.188-0.261-0.479-0.261-0.873v-2.776H108.295z"/>
	<path fill="#F9B122" d="M115.222,47.648c0,0.057-0.011,0.091-0.035,0.106c-0.021,0.013-0.056,0.02-0.099,0.02h-0.467
		c-0.049,0-0.085-0.007-0.103-0.02c-0.02-0.015-0.031-0.049-0.031-0.106v-2.404c0-0.899-0.381-1.35-1.146-1.35
		c-0.166,0-0.342,0.015-0.53,0.043c-0.193,0.028-0.359,0.072-0.5,0.134v3.576c0,0.057-0.012,0.091-0.032,0.106
		c-0.024,0.013-0.058,0.02-0.104,0.02h-0.465c-0.044,0-0.076-0.007-0.099-0.02c-0.024-0.015-0.034-0.049-0.034-0.106v-5.913
		c0-0.056,0.01-0.092,0.034-0.105c0.023-0.014,0.055-0.021,0.099-0.021h0.465c0.046,0,0.08,0.006,0.104,0.021
		c0.02,0.014,0.032,0.049,0.032,0.105l-0.002,1.712c0.18-0.072,0.377-0.124,0.588-0.152c0.216-0.028,0.401-0.042,0.566-0.042
		c0.312,0,0.582,0.046,0.803,0.139c0.221,0.093,0.403,0.225,0.548,0.397c0.14,0.171,0.245,0.379,0.309,0.623
		c0.064,0.245,0.098,0.522,0.098,0.831V47.648z"/>
	<path fill="#F9B122" d="M120.923,47.143c0.249,0,0.485-0.028,0.71-0.084c0.225-0.058,0.433-0.13,0.632-0.22
		c0.061-0.028,0.105-0.031,0.135-0.009c0.027,0.023,0.048,0.049,0.059,0.077l0.16,0.354c0.035,0.066,0.044,0.114,0.035,0.139
		c-0.012,0.025-0.037,0.052-0.077,0.08c-0.136,0.08-0.278,0.143-0.435,0.195c-0.153,0.05-0.31,0.09-0.462,0.118
		c-0.155,0.028-0.309,0.047-0.459,0.06c-0.154,0.01-0.297,0.016-0.432,0.016c-0.393,0-0.745-0.06-1.058-0.178
		c-0.313-0.118-0.574-0.297-0.787-0.54c-0.216-0.24-0.38-0.547-0.496-0.918c-0.115-0.372-0.172-0.813-0.172-1.324
		c0-0.472,0.062-0.902,0.186-1.287c0.124-0.385,0.298-0.713,0.522-0.986c0.224-0.273,0.494-0.482,0.814-0.629
		c0.319-0.146,0.667-0.218,1.049-0.218c0.242,0,0.493,0.021,0.75,0.063c0.26,0.042,0.532,0.136,0.82,0.283
		c0.034,0.016,0.057,0.04,0.065,0.067c0.012,0.028,0.003,0.069-0.024,0.126l-0.194,0.388c-0.018,0.034-0.035,0.058-0.055,0.072
		c-0.021,0.013-0.051,0.009-0.095-0.013c-0.396-0.174-0.806-0.262-1.232-0.262c-0.322,0-0.595,0.068-0.822,0.203
		c-0.23,0.136-0.417,0.313-0.567,0.536c-0.148,0.221-0.255,0.478-0.323,0.768c-0.069,0.289-0.104,0.585-0.104,0.89
		c0,0.309,0.032,0.598,0.091,0.868c0.059,0.271,0.159,0.506,0.303,0.708c0.142,0.203,0.334,0.363,0.573,0.481
		C120.273,47.083,120.569,47.143,120.923,47.143"/>
	<path fill="#F9B122" d="M125.072,48.5c-0.126,0.387-0.295,0.657-0.496,0.809c-0.203,0.152-0.461,0.228-0.776,0.228
		c-0.081,0-0.177-0.005-0.295-0.017c-0.118-0.012-0.25-0.037-0.387-0.076c-0.091-0.023-0.125-0.067-0.104-0.135l0.095-0.37
		c0.013-0.046,0.027-0.073,0.05-0.082c0.022-0.007,0.052-0.006,0.091,0.004c0.109,0.028,0.188,0.047,0.24,0.055
		c0.053,0.008,0.117,0.013,0.191,0.013c0.192,0,0.345-0.039,0.463-0.113c0.119-0.077,0.214-0.227,0.286-0.452
		c0.007-0.016,0.021-0.056,0.045-0.118c0.02-0.062,0.045-0.128,0.069-0.198c0.026-0.071,0.049-0.136,0.068-0.198
		c0.02-0.062,0.034-0.103,0.041-0.119h-0.163c-0.077,0-0.146-0.013-0.205-0.038c-0.06-0.025-0.11-0.11-0.157-0.257l-1.299-3.998
		c-0.016-0.062,0.008-0.093,0.076-0.093h0.566c0.063,0,0.101,0.028,0.118,0.084c0.01,0.039,0.033,0.117,0.07,0.232
		c0.038,0.115,0.08,0.25,0.13,0.404c0.051,0.155,0.104,0.32,0.159,0.498c0.057,0.177,0.112,0.344,0.163,0.497
		c0.05,0.156,0.093,0.291,0.13,0.41c0.038,0.118,0.061,0.195,0.07,0.229l0.433,1.484h0.049c0.019-0.044,0.051-0.146,0.101-0.303
		c0.052-0.158,0.105-0.325,0.158-0.501c0.054-0.178,0.104-0.339,0.151-0.482c0.046-0.143,0.074-0.221,0.081-0.231
		c0.006-0.012,0.021-0.063,0.055-0.157c0.029-0.093,0.071-0.209,0.118-0.35c0.046-0.14,0.098-0.293,0.155-0.458
		c0.055-0.167,0.111-0.331,0.164-0.495c0.055-0.163,0.105-0.313,0.153-0.451c0.048-0.139,0.084-0.246,0.114-0.325
		c0.018-0.056,0.055-0.084,0.119-0.084h0.54c0.067,0,0.092,0.031,0.074,0.093L125.072,48.5z"/>
	<path fill="#F9B122" d="M128.033,47.1c0.163,0.056,0.335,0.095,0.515,0.114c0.18,0.021,0.339,0.03,0.472,0.03
		c0.193,0,0.37-0.033,0.532-0.096c0.166-0.065,0.305-0.166,0.423-0.3c0.118-0.136,0.211-0.309,0.273-0.52
		c0.064-0.21,0.097-0.467,0.097-0.77c0-0.558-0.108-0.973-0.329-1.249c-0.22-0.276-0.523-0.414-0.909-0.414
		c-0.107,0-0.26,0.011-0.456,0.03c-0.197,0.02-0.404,0.066-0.617,0.139V47.1z M131.096,45.505c0,0.344-0.042,0.66-0.123,0.949
		c-0.079,0.29-0.205,0.539-0.375,0.747c-0.17,0.208-0.383,0.37-0.643,0.488c-0.255,0.118-0.563,0.177-0.917,0.177
		c-0.264,0-0.542-0.021-0.828-0.063c-0.287-0.041-0.556-0.117-0.81-0.222c-0.067-0.023-0.101-0.074-0.101-0.153v-5.694
		c0-0.056,0.01-0.091,0.034-0.105c0.023-0.014,0.055-0.021,0.1-0.021h0.474c0.044,0,0.077,0.006,0.099,0.021
		c0.018,0.014,0.026,0.049,0.026,0.105v1.696c0.18-0.056,0.38-0.1,0.595-0.131c0.217-0.031,0.404-0.046,0.561-0.046
		c0.333,0,0.618,0.056,0.858,0.169c0.238,0.112,0.436,0.267,0.595,0.463c0.156,0.198,0.271,0.436,0.345,0.713
		C131.06,44.878,131.096,45.179,131.096,45.505"/>
	<path fill="#F9B122" d="M134.839,45.185c0-0.174-0.014-0.341-0.05-0.502c-0.031-0.16-0.093-0.3-0.181-0.42
		c-0.087-0.121-0.206-0.217-0.356-0.288c-0.147-0.069-0.336-0.104-0.561-0.104c-0.188,0-0.352,0.037-0.497,0.109
		c-0.142,0.074-0.263,0.17-0.362,0.292c-0.101,0.121-0.176,0.259-0.233,0.417c-0.055,0.158-0.092,0.324-0.103,0.498H134.839z
		 M133.685,43.254c0.322,0,0.599,0.044,0.831,0.134c0.233,0.09,0.426,0.219,0.573,0.384c0.151,0.167,0.262,0.363,0.336,0.59
		c0.071,0.228,0.109,0.48,0.109,0.755c0,0.136-0.018,0.245-0.05,0.329c-0.035,0.084-0.081,0.15-0.141,0.199
		c-0.058,0.047-0.126,0.082-0.203,0.1c-0.072,0.02-0.155,0.03-0.24,0.03h-2.427c0,0.265,0.034,0.49,0.108,0.675
		c0.075,0.186,0.171,0.337,0.292,0.452c0.122,0.115,0.26,0.198,0.424,0.248c0.16,0.052,0.334,0.077,0.52,0.077
		c0.187,0,0.371-0.024,0.55-0.073c0.178-0.047,0.33-0.102,0.448-0.164c0.068-0.04,0.121-0.026,0.16,0.042l0.178,0.354
		c0.039,0.08,0.024,0.136-0.05,0.169c-0.204,0.123-0.422,0.207-0.655,0.248c-0.232,0.043-0.462,0.064-0.687,0.064
		c-0.315,0-0.598-0.045-0.849-0.135c-0.251-0.09-0.462-0.229-0.636-0.414c-0.173-0.186-0.307-0.422-0.399-0.708
		c-0.094-0.287-0.141-0.63-0.141-1.028c0-0.373,0.049-0.702,0.149-0.992c0.097-0.29,0.234-0.533,0.408-0.729
		c0.175-0.197,0.379-0.347,0.615-0.451C133.145,43.306,133.405,43.254,133.685,43.254"/>
	<path fill="#F9B122" d="M138.981,44.375c-0.026,0.039-0.051,0.055-0.071,0.046c-0.02-0.009-0.044-0.021-0.07-0.039
		c-0.159-0.151-0.34-0.268-0.541-0.35c-0.204-0.082-0.421-0.123-0.658-0.123c-0.156,0-0.325,0.018-0.499,0.052v3.686
		c0,0.057-0.009,0.091-0.033,0.106c-0.023,0.013-0.057,0.02-0.103,0.02h-0.469c-0.047,0-0.078-0.007-0.099-0.02
		c-0.019-0.015-0.028-0.049-0.028-0.106v-3.71c0-0.204,0.031-0.352,0.101-0.448c0.069-0.096,0.21-0.161,0.427-0.194
		c0.114-0.01,0.223-0.021,0.33-0.029c0.106-0.008,0.216-0.012,0.322-0.012c0.332,0,0.638,0.044,0.919,0.134
		c0.28,0.09,0.54,0.239,0.775,0.447c0.045,0.045,0.048,0.09,0.01,0.134L138.981,44.375z"/>
	<path fill="#F9B122" d="M145.765,42.005c0-0.062,0.012-0.1,0.036-0.118c0.027-0.016,0.067-0.024,0.124-0.024h0.44
		c0.055,0,0.095,0.008,0.121,0.024c0.024,0.018,0.038,0.056,0.038,0.118v5.349c0,0.14-0.029,0.246-0.087,0.316
		c-0.055,0.069-0.165,0.105-0.326,0.105h-0.219c-0.13,0-0.221-0.025-0.276-0.075c-0.054-0.051-0.121-0.139-0.196-0.261l-2.008-3.323
		l-0.667-1.147h-0.022v4.664c0,0.062-0.013,0.102-0.036,0.118c-0.021,0.017-0.065,0.025-0.126,0.025h-0.438
		c-0.05,0-0.091-0.009-0.118-0.025c-0.03-0.016-0.042-0.056-0.042-0.118v-5.347c0-0.14,0.028-0.247,0.087-0.316
		c0.059-0.07,0.166-0.105,0.325-0.105h0.22c0.125,0,0.212,0.024,0.264,0.076c0.054,0.051,0.12,0.138,0.2,0.262l1.966,3.247
		l0.715,1.224h0.027V42.005z"/>
	<path fill="#F9B122" d="M150.521,45.185c0-0.174-0.019-0.341-0.05-0.502c-0.034-0.16-0.093-0.3-0.183-0.42
		c-0.086-0.121-0.204-0.217-0.355-0.288c-0.149-0.069-0.336-0.104-0.562-0.104c-0.186,0-0.352,0.037-0.497,0.109
		c-0.143,0.074-0.264,0.17-0.364,0.292c-0.098,0.121-0.177,0.259-0.232,0.417c-0.057,0.158-0.089,0.324-0.101,0.498H150.521z
		 M149.366,43.254c0.318,0,0.598,0.044,0.831,0.134c0.234,0.09,0.422,0.219,0.573,0.384c0.147,0.167,0.259,0.363,0.331,0.59
		c0.075,0.228,0.111,0.48,0.111,0.755c0,0.136-0.016,0.245-0.05,0.329c-0.034,0.084-0.08,0.15-0.138,0.199
		c-0.06,0.047-0.127,0.082-0.204,0.1c-0.077,0.02-0.154,0.03-0.241,0.03h-2.43c0,0.265,0.039,0.49,0.111,0.675
		c0.074,0.186,0.173,0.337,0.294,0.452c0.119,0.115,0.261,0.198,0.42,0.248c0.164,0.052,0.336,0.077,0.522,0.077
		c0.184,0,0.37-0.024,0.549-0.073c0.181-0.047,0.333-0.102,0.45-0.164c0.066-0.04,0.12-0.026,0.16,0.042l0.177,0.354
		c0.038,0.08,0.021,0.136-0.051,0.169c-0.203,0.123-0.42,0.207-0.653,0.248c-0.233,0.043-0.462,0.064-0.69,0.064
		c-0.312,0-0.594-0.045-0.845-0.135c-0.25-0.09-0.462-0.229-0.636-0.414c-0.175-0.186-0.309-0.422-0.404-0.708
		c-0.092-0.287-0.138-0.63-0.138-1.028c0-0.373,0.049-0.702,0.147-0.992c0.099-0.29,0.233-0.533,0.409-0.729
		c0.173-0.197,0.379-0.347,0.616-0.451C148.826,43.306,149.084,43.254,149.366,43.254"/>
	<path fill="#F9B122" d="M151.72,43.938c-0.051,0-0.085-0.012-0.1-0.034c-0.011-0.023-0.019-0.051-0.019-0.085v-0.249
		c0-0.073,0.038-0.123,0.119-0.146l0.657-0.128l0.133-0.81c0.013-0.056,0.03-0.093,0.051-0.109c0.023-0.018,0.057-0.037,0.104-0.059
		l0.276-0.102c0.04-0.012,0.071-0.01,0.091,0.004c0.023,0.013,0.037,0.049,0.037,0.105v1.021h0.936c0.051,0,0.083,0.01,0.097,0.034
		c0.013,0.023,0.022,0.055,0.022,0.094v0.343c0,0.045-0.009,0.076-0.022,0.093c-0.013,0.018-0.046,0.027-0.097,0.027h-0.936v2.733
		c0,0.197,0.042,0.338,0.131,0.425c0.085,0.087,0.232,0.132,0.433,0.132c0.073,0,0.176-0.008,0.309-0.021
		c0.132-0.015,0.246-0.028,0.341-0.039c0.05-0.011,0.083-0.01,0.098,0.004c0.012,0.014,0.023,0.035,0.027,0.063l0.078,0.375
		c0.006,0.033,0.008,0.061,0.004,0.083c-0.003,0.022-0.028,0.042-0.072,0.058c-0.163,0.05-0.333,0.082-0.513,0.096
		c-0.182,0.013-0.311,0.021-0.392,0.021c-0.436,0-0.743-0.095-0.917-0.281c-0.175-0.188-0.264-0.479-0.264-0.873v-2.776H151.72z"/>
	<path fill="#F9B122" d="M157.513,44.367l-0.37,1.392l-0.532,1.712c-0.035,0.107-0.081,0.191-0.136,0.253
		c-0.057,0.062-0.15,0.093-0.277,0.093h-0.322c-0.094,0-0.177-0.023-0.244-0.068c-0.067-0.044-0.119-0.149-0.152-0.312l-0.885-4.015
		c-0.018-0.063,0.007-0.094,0.068-0.094h0.563c0.041,0,0.066,0.008,0.077,0.021c0.013,0.014,0.021,0.035,0.034,0.063l0.481,2.439
		l0.227,1.163h0.044l0.31-1.062l0.609-2.117c0.023-0.078,0.062-0.152,0.118-0.219c0.055-0.067,0.153-0.101,0.295-0.101h0.253
		c0.121,0,0.207,0.031,0.251,0.093c0.046,0.062,0.082,0.146,0.109,0.252l0.583,1.965l0.362,1.249h0.044l0.227-1.239l0.481-2.421
		c0.009-0.028,0.021-0.049,0.032-0.063c0.013-0.014,0.037-0.021,0.077-0.021h0.563c0.063,0,0.087,0.031,0.067,0.094l-0.893,4.015
		c-0.04,0.163-0.096,0.267-0.174,0.312c-0.077,0.045-0.161,0.068-0.256,0.068h-0.295c-0.128,0-0.222-0.024-0.275-0.073
		c-0.054-0.047-0.1-0.139-0.138-0.273l-0.531-1.755l-0.363-1.349H157.513z"/>
	<path fill="#F9B122" d="M164.067,45.564c0-0.219-0.019-0.431-0.051-0.636c-0.036-0.205-0.098-0.385-0.186-0.541
		c-0.089-0.154-0.214-0.279-0.373-0.375c-0.156-0.097-0.36-0.144-0.604-0.144c-0.217,0-0.402,0.044-0.558,0.134
		c-0.157,0.09-0.286,0.211-0.387,0.363c-0.104,0.152-0.177,0.33-0.228,0.531c-0.052,0.203-0.076,0.417-0.076,0.641
		c0,0.254,0.02,0.486,0.06,0.696c0.038,0.211,0.106,0.392,0.201,0.54c0.098,0.149,0.222,0.266,0.375,0.35
		c0.155,0.084,0.351,0.126,0.587,0.126s0.436-0.047,0.594-0.143c0.16-0.095,0.287-0.223,0.383-0.379
		c0.097-0.158,0.165-0.338,0.203-0.541C164.046,45.986,164.067,45.778,164.067,45.564 M164.802,45.539
		c0,0.754-0.173,1.331-0.511,1.729c-0.339,0.4-0.833,0.6-1.479,0.6c-0.633,0-1.115-0.193-1.445-0.582
		c-0.332-0.388-0.499-0.961-0.499-1.721c0-0.371,0.05-0.7,0.149-0.986c0.098-0.287,0.236-0.528,0.413-0.726
		c0.176-0.196,0.385-0.346,0.627-0.446c0.241-0.102,0.503-0.152,0.782-0.152c0.639,0,1.126,0.203,1.459,0.607
		S164.802,44.825,164.802,45.539"/>
	<path fill="#F9B122" d="M168.274,44.375c-0.027,0.039-0.052,0.055-0.069,0.046c-0.021-0.009-0.045-0.021-0.073-0.039
		c-0.156-0.151-0.335-0.268-0.54-0.35c-0.2-0.082-0.422-0.123-0.659-0.123c-0.156,0-0.322,0.018-0.495,0.052v3.686
		c0,0.057-0.013,0.091-0.036,0.106c-0.021,0.013-0.057,0.02-0.101,0.02h-0.469c-0.046,0-0.081-0.007-0.097-0.02
		c-0.021-0.015-0.032-0.049-0.032-0.106v-3.71c0-0.204,0.036-0.352,0.103-0.448c0.067-0.096,0.211-0.161,0.426-0.194
		c0.113-0.01,0.223-0.021,0.333-0.029c0.107-0.008,0.213-0.012,0.321-0.012c0.33,0,0.637,0.044,0.918,0.134
		c0.282,0.09,0.539,0.239,0.776,0.447c0.046,0.045,0.048,0.09,0.008,0.134L168.274,44.375z"/>
	<path fill="#F9B122" d="M169.768,45.446l1.703-2.033c0.019-0.022,0.038-0.039,0.055-0.05c0.021-0.012,0.052-0.016,0.099-0.016
		h0.649c0.027,0,0.046,0.012,0.056,0.037c0.008,0.026,0.004,0.047-0.013,0.063l-1.131,1.358l1.309,2.876
		c0.011,0.018,0.014,0.037,0.007,0.059c-0.004,0.023-0.031,0.034-0.075,0.034h-0.55c-0.088,0-0.145-0.031-0.168-0.093l-1.027-2.286
		l-0.946,1.088v1.164c0,0.057-0.009,0.091-0.031,0.106c-0.019,0.013-0.054,0.021-0.105,0.021h-0.463c-0.045,0-0.079-0.007-0.1-0.021
		c-0.023-0.015-0.036-0.049-0.036-0.106v-5.913c0-0.056,0.012-0.091,0.036-0.105c0.021-0.014,0.055-0.021,0.1-0.021h0.463
		c0.051,0,0.086,0.006,0.105,0.021c0.021,0.014,0.031,0.049,0.031,0.105v3.695L169.768,45.446z"/>
</g>
</svg>
